<svg width="1437" height="857" viewBox="0 0 1437 857" fill="none" xmlns="http://www.w3.org/2000/svg">
<path fill-rule="evenodd" clip-rule="evenodd" d="M-3 814L57 763C117 713 237 612 357 612C477 612 597 713 717 735C837 756 957 699 1077 634C1197 569 1317 497 1377 461L1437 425V857H1377C1317 857 1197 857 1077 857C957 857 837 857 717 857C597 857 477 857 357 857C237 857 117 857 57 857H-3V814Z" fill="#FF6363"/>
<path d="M123 137.1L130.5 144.5L97.2001 160.4C97.2001 160.4 92.8001 162.4 90.7001 159.2C82.5001 146.4 123 137.1 123 137.1Z" fill="#547725"/>
<path d="M96.4002 151.1C96.4002 151.1 90.0002 153.3 91.2002 157.6C92.4002 162 97.5002 159.3 97.5002 159.3L129.1 144.6C129.1 144.6 127.3 139.9 130.5 136.8L96.4002 151.1Z" fill="#D9E3E8"/>
<path d="M101.7 107L132 136.5L96.2002 150.5L73.2002 114.7L101.7 107Z" fill="#83BF4F"/>
<path d="M102.6 113.7L108.4 119.9L86.7001 127.7L81.6001 119.8L102.6 113.7Z" fill="white"/>
<path d="M129 140L107.9 148.6L128.7 139.1L129 140ZM128.7 142.6L106.2 151.9L128.3 141.6L128.7 142.6ZM128.9 144L100.2 156.5L128.5 143.1L128.9 144Z" fill="#94989B"/>
<path d="M90.7 159.2C87.2 151.9 96.2 150.6 96.2 150.6L73.2 114.7C73.2 114.7 68 114.6 68 120C68 122.2 69 123.9 69 123.9L90.7 159.2Z" fill="#699635"/>
<path d="M317 436.1L324.5 443.5L291.2 459.4C291.2 459.4 286.8 461.4 284.7 458.2C276.5 445.4 317 436.1 317 436.1Z" fill="#547725"/>
<path d="M290.4 450.1C290.4 450.1 284 452.3 285.2 456.6C286.4 461 291.5 458.3 291.5 458.3L323.1 443.6C323.1 443.6 321.3 438.9 324.5 435.8L290.4 450.1Z" fill="#D9E3E8"/>
<path d="M295.7 406L326 435.5L290.2 449.5L267.2 413.7L295.7 406Z" fill="white"/>
<path d="M296.6 412.7L302.4 418.9L280.7 426.7L275.6 418.8L296.6 412.7Z" fill="#B5B5B5"/>
<path d="M323 439L301.9 447.6L322.7 438.1L323 439ZM322.7 441.6L300.2 450.9L322.3 440.6L322.7 441.6ZM322.9 443L294.2 455.5L322.5 442.1L322.9 443Z" fill="#94989B"/>
<path d="M284.7 458.2C281.2 450.9 290.2 449.6 290.2 449.6L267.2 413.7C267.2 413.7 262 413.6 262 419C262 421.2 263 422.9 263 422.9L284.7 458.2Z" fill="#C2FF7C"/>
<g clip-path="url(#clip0_343_2)">
<path d="M254.9 86.7L262.2 94.3L230.1 110.4C230.1 110.4 225.9 112.5 223.9 109.2C215.9 96.2 254.9 86.7 254.9 86.7Z" fill="#256382"/>
<path d="M229.2 100.9C229.2 100.9 223.1 103.2 224.2 107.5C225.4 112 230.3 109.3 230.3 109.3L260.8 94.3C260.8 94.3 259.1 89.5 262.2 86.3L229.2 100.9Z" fill="#D9E3E8"/>
<path d="M234.4 55.9L263.6 86L229.1 100.3L207 63.7L234.4 55.9Z" fill="#42ADE2"/>
<path d="M260.7 89.6L240.3 98.4L260.3 88.7L260.7 89.6ZM260.4 92.2L238.7 101.7L260 91.3L260.4 92.2ZM260.6 93.7L232.9 106.4L260.2 92.8L260.6 93.7Z" fill="#94989B"/>
<path d="M223.8 109.1C220.4 101.6 229.1 100.3 229.1 100.3L207 63.7C207 63.7 202 63.6 202 69.1C202 71.4 203 73.1 203 73.1L223.8 109.1Z" fill="#428BC1"/>
<path d="M208.7 79.2L201.4 86.8L233.5 102.9C233.5 102.9 237.7 105 239.7 101.7C247.7 88.7 208.7 79.2 208.7 79.2Z" fill="#547725"/>
<path d="M234.3 93.4C234.3 93.4 240.4 95.7 239.3 100C238.1 104.5 233.3 101.8 233.3 101.8L202.8 86.8C202.8 86.8 204.5 82 201.4 78.8L234.3 93.4Z" fill="#D9E3E8"/>
<path d="M229.2 48.4L200 78.5L234.5 92.8L256.6 56.2L229.2 48.4Z" fill="#83BF4F"/>
<path d="M203.2 81.2L223.2 90.9L202.8 82.1L203.2 81.2ZM203.6 83.8L224.8 94.2L203.1 84.7L203.6 83.8ZM203.4 85.3L230.6 98.9L202.9 86.2L203.4 85.3Z" fill="#94989B"/>
<path d="M239.8 101.6C243.2 94.1 234.5 92.8 234.5 92.8L256.6 56.2C256.6 56.2 261.6 56.1 261.6 61.6C261.6 63.9 260.6 65.6 260.6 65.6L239.8 101.6Z" fill="#699635"/>
<path d="M256.7 73L262.8 79.4L235.7 92.9C235.7 92.9 232.1 94.6 230.4 91.9C223.8 81 256.7 73 256.7 73Z" fill="#962C2C"/>
<path d="M235 85C235 85 229.8 86.9 230.8 90.6C231.8 94.4 235.9 92.1 235.9 92.1L261.6 79.4C261.6 79.4 260.2 75.4 262.8 72.7L235 85Z" fill="#D9E3E8"/>
<path d="M239.4 47L264 72.4L234.9 84.5L216.2 53.6L239.4 47Z" fill="#ED4C5C"/>
<path d="M240.1 52.8L244.9 58.1L227.2 64.8L223 58L240.1 52.8Z" fill="white"/>
<path d="M261.6 75.5L244.4 82.8L261.2 74.6L261.6 75.5ZM261.4 77.7L243 85.6L261 76.8L261.4 77.7ZM261.6 78.9L238.2 89.6L261.1 78L261.6 78.9Z" fill="#94989B"/>
<path d="M230.5 91.9C227.7 85.6 235 84.5 235 84.5L216.2 53.6C216.2 53.6 211.9 53.5 211.9 58.1C211.9 60 212.7 61.5 212.7 61.5L230.5 91.9Z" fill="#C94747"/>
</g>
<path d="M144.208 284.475C144.208 284.475 146.09 291.504 157.881 289.705L159.881 285.003L156.49 281.428L147.105 278.423L144.206 284.475" fill="#34484C"/>
<path d="M181.767 271.306C181.767 273.794 180.449 274.45 177.115 275.813L148.652 287.471C146.082 287.47 144 285.453 144 282.962V244.17C144 241.677 145.512 240.848 148.652 239.658L177.114 228C179.686 228 181.766 230.023 181.766 232.512V271.306" fill="#AD7029"/>
<path d="M146.586 286.995C146.586 286.995 157.253 289.963 157.88 289.706C158.499 289.452 157.481 285.221 157.481 285.221L153.623 281.191L150.027 281.029L149.396 281.898L146.586 286.995Z" fill="#34484C"/>
<path d="M176.447 230.687L144.869 243.553L146.35 251.796L151.049 252.254L166.739 249.805L176.491 244.847L183.671 235.313C182.101 232.585 179.797 230.895 176.447 230.687Z" fill="#F4F5F5"/>
<path d="M153.233 246.405C153.233 245.682 153.367 245.106 153.624 244.615C150.393 244.321 147.34 243.415 145.114 241.47C144.373 242.13 144.009 242.948 144.009 244.169V282.96C144.009 285.45 146.097 287.469 148.663 287.469L153.256 285.59C153.255 285.457 153.234 285.33 153.234 285.196V246.405" fill="#34484C"/>
<path d="M191.819 275.127C191.819 277.618 190.497 278.272 187.168 279.637L157.878 289.707C155.308 289.707 153.222 287.688 153.222 285.197V246.405C153.222 243.915 154.734 243.087 157.878 241.891L187.168 231.824C189.735 231.824 191.819 233.844 191.819 236.336V275.127Z" fill="#F79420"/>
<path d="M179.691 243.663C179.72 243.739 179.734 243.819 179.732 243.9C179.729 243.981 179.711 244.061 179.677 244.135C179.643 244.208 179.595 244.274 179.535 244.329C179.475 244.384 179.405 244.426 179.329 244.453L163.754 250.282C163.599 250.34 163.428 250.336 163.276 250.271C163.125 250.205 163.004 250.084 162.94 249.932C162.91 249.857 162.896 249.776 162.898 249.695C162.9 249.614 162.919 249.534 162.952 249.461C162.986 249.387 163.034 249.321 163.094 249.266C163.153 249.211 163.223 249.169 163.3 249.142L178.877 243.314C179.031 243.256 179.203 243.26 179.355 243.325C179.507 243.391 179.627 243.512 179.691 243.665M179.691 246.437C179.72 246.513 179.734 246.593 179.732 246.674C179.729 246.755 179.711 246.835 179.677 246.909C179.643 246.982 179.595 247.048 179.535 247.103C179.475 247.158 179.405 247.2 179.329 247.227L163.754 253.046C163.599 253.105 163.428 253.102 163.276 253.036C163.124 252.971 163.003 252.849 162.94 252.696C162.911 252.621 162.897 252.541 162.9 252.46C162.903 252.38 162.921 252.301 162.955 252.228C162.988 252.155 163.036 252.089 163.095 252.035C163.155 251.98 163.224 251.938 163.3 251.911L178.877 246.082C179.031 246.023 179.203 246.027 179.355 246.092C179.507 246.157 179.627 246.279 179.691 246.432M174.397 251.296C174.522 251.612 174.446 251.933 174.224 252.016L163.587 255.995C163.365 256.075 163.085 255.888 162.958 255.575C162.834 255.261 162.913 254.937 163.135 254.853L173.772 250.876C173.99 250.796 174.271 250.982 174.397 251.296Z" fill="#905A24"/>
<path d="M1273.91 211.015C1273.91 211.015 1274.16 218.42 1274.55 221.44C1274.95 224.46 1275.98 226.3 1275.98 226.3C1276.18 228.155 1275.43 229.97 1275.43 229.97C1275.43 229.97 1264.23 257.115 1262.18 260.27C1261.63 261.105 1260.76 261.905 1259.78 262.03C1257.95 262.26 1253.7 261.11 1251.37 260.465C1242.98 258.15 1232.23 254.715 1228.9 253.555C1227.21 252.97 1225.48 251.49 1224.83 250.585C1221.9 246.5 1223.3 241.32 1223.3 241.32L1273.91 211.015Z" fill="white"/>
<path d="M1259.27 263.795C1257.22 263.795 1254.06 263.01 1250.91 262.14C1242.63 259.855 1231.82 256.405 1228.34 255.2C1226.33 254.505 1224.31 252.825 1223.43 251.605C1220.06 246.91 1221.57 241.12 1221.64 240.88C1221.69 240.66 1221.8 240.454 1221.93 240.273C1222.07 240.093 1222.25 239.941 1222.44 239.827C1222.64 239.714 1222.86 239.64 1223.08 239.61C1223.31 239.581 1223.54 239.596 1223.76 239.655C1223.98 239.714 1224.19 239.816 1224.37 239.955C1224.55 240.093 1224.7 240.266 1224.81 240.464C1224.93 240.661 1225 240.879 1225.03 241.105C1225.06 241.331 1225.04 241.56 1224.99 241.78C1224.96 241.865 1223.87 246.265 1226.25 249.585C1226.74 250.265 1228.2 251.485 1229.48 251.925C1232.92 253.12 1243.63 256.535 1251.84 258.8C1253.37 259.22 1258.02 260.505 1259.58 260.315C1259.85 260.28 1260.34 259.93 1260.74 259.33C1262.18 257.115 1269.36 240.17 1273.84 229.315C1273.84 229.305 1274.34 228.06 1274.28 226.785C1273.93 226.04 1273.17 224.22 1272.84 221.675C1272.44 218.605 1272.2 211.385 1272.19 211.08C1272.18 210.852 1272.22 210.626 1272.3 210.413C1272.38 210.199 1272.5 210.004 1272.66 209.838C1272.81 209.672 1273 209.538 1273.21 209.444C1273.41 209.35 1273.64 209.297 1273.87 209.29C1274.84 209.225 1275.63 210.01 1275.66 210.965C1275.66 211.04 1275.91 218.32 1276.28 221.225C1276.62 223.83 1277.5 225.455 1277.5 225.47C1277.61 225.67 1277.69 225.895 1277.71 226.12C1277.96 228.35 1277.14 230.415 1277.05 230.645C1275.9 233.44 1265.72 258.035 1263.64 261.23C1262.71 262.67 1261.38 263.59 1260.01 263.765C1259.78 263.78 1259.53 263.795 1259.27 263.795Z" fill="#2F2F2F"/>
<path d="M1259.79 263.19C1259.42 263.19 1259.06 263.01 1258.83 262.68C1255.01 257.035 1256.87 248.485 1256.95 248.125C1257.02 247.826 1257.2 247.565 1257.46 247.401C1257.72 247.237 1258.04 247.183 1258.34 247.25C1258.96 247.39 1259.35 248.005 1259.21 248.63C1259.19 248.71 1257.49 256.57 1260.75 261.385C1261.1 261.915 1260.96 262.635 1260.44 262.99C1260.24 263.125 1260.01 263.19 1259.79 263.19Z" fill="#2F2F2F"/>
<path d="M1271.41 206.435C1268.55 205.385 1258.67 202.08 1250.95 200.75L1250.54 200.68C1249.34 200.47 1247.85 200.205 1246.22 200.205C1245.03 200.205 1243.96 200.34 1242.95 200.625C1241.75 200.96 1240.12 201.645 1239.21 203.005C1233.53 211.44 1222.18 239.485 1221.7 240.675C1221.54 241.065 1221.54 241.49 1221.66 241.865C1221.68 241.885 1221.68 241.905 1221.7 241.925C1222.55 242.69 1223.77 242.16 1224.71 241.92C1225 241.845 1225.31 241.795 1225.61 241.765C1225.79 241.72 1225.99 241.69 1226.22 241.69C1226.87 241.69 1227.67 241.87 1228.51 242.055C1228.83 242.125 1229.16 242.2 1229.48 242.265C1230.08 242.385 1232.93 243.355 1235.43 244.21C1237.2 244.81 1239.04 245.44 1240.56 245.935L1241.24 246.155C1246.05 247.72 1250.2 249.07 1251.36 249.39C1253.88 250.09 1255.54 250.4 1256.75 250.4C1257.18 250.4 1257.56 250.36 1257.9 250.28C1259.98 249.78 1261.11 248.025 1261.79 246.75C1261.92 246.505 1263.21 243.425 1270.58 225.65C1272.67 220.62 1274.34 216.585 1274.47 216.275C1274.8 215.515 1275.2 214.465 1275.46 213.365C1275.85 211.695 1276.09 210.555 1275.58 209.36C1274.96 207.92 1273.41 207.18 1271.41 206.435Z" fill="#ED6C30"/>
<path d="M1230.73 58.7503C1229.29 58.972 1187.75 59.7042 1186.01 58.8431C1183.68 57.6985 1183.3 54.4758 1184.5 52.2019C1185.49 50.3353 1188.03 50.2889 1189.79 50.258C1192.45 50.2116 1228.23 50.2322 1230.5 50.5622C1231.01 50.6395 1231.41 50.5674 1231.51 51.1552C1231.62 51.8564 1231.32 52.7227 1231.3 53.4394C1231.26 54.3056 1231.38 55.1616 1231.48 56.0175C1231.55 56.6311 1231.95 57.3788 1231.9 57.9872C1231.85 58.5699 1231.22 58.6781 1230.73 58.7503Z" fill="white"/>
<path d="M1236.77 45.2719C1236.65 44.2664 1236.65 43.2351 1236.53 42.2194C1236.1 38.2851 1235.7 34.3509 1235.3 30.4167C1234.77 25.147 1234.25 19.8825 1233.64 14.6231C1233.38 12.3698 1233.25 10.0547 1232.56 7.8839C1231.36 4.10952 1226.89 4.4189 1223.74 4.18171C1218.58 3.79499 1213.47 3.58874 1208.28 3.61452C1205.34 3.62999 1202.4 3.66609 1199.46 3.7228C1196.78 3.77437 1194.09 3.78984 1191.41 3.90843C1190.06 3.9703 1188.7 4.11468 1187.35 4.23327C1184.37 4.5014 1181.37 5.89358 1179.91 8.57483C1179.27 9.76593 1178.96 11.1426 1178.76 12.473C1178.23 16.1133 1177.9 19.7794 1177.67 23.4506C1177.43 27.1064 1177.41 30.7673 1177.39 34.4283C1177.38 38.8523 1177.11 43.2712 1177.11 47.6901C1177.11 52.0575 1176.76 56.7755 1180.38 59.9259C1181.6 60.983 1183.01 61.612 1184.51 61.9987C1187.01 62.6484 1226.91 62.3236 1229.51 62.1689C1231.77 62.0348 1235.94 62.6742 1236.18 59.3587C1236.25 58.3017 1235.6 57.2395 1235.13 56.332C1234.63 55.3833 1234.21 54.3469 1234.16 53.2641C1234.11 52.2173 1234.41 51.1964 1234.54 50.1703C1235.37 50.2012 1236.18 49.6495 1236.57 48.9328C1237.06 48.0305 1236.89 46.2773 1236.77 45.2719ZM1230.38 58.7503C1228.94 58.972 1187.4 59.7042 1185.66 58.8431C1183.33 57.6984 1182.95 54.4758 1184.16 52.2019C1185.14 50.3353 1187.68 49.7062 1189.44 49.6753C1192.1 49.6289 1228.06 48.2419 1230.33 48.5719C1230.66 48.6183 1231.08 48.5822 1231.27 48.9225C1231.37 49.1236 1231.36 49.3144 1231.29 49.5155C1231.02 50.2683 1230.88 51.0623 1230.82 51.8564C1230.73 52.9134 1230.63 53.9756 1230.72 55.0378C1230.78 55.5895 1230.87 56.1309 1231.06 56.6569C1231.21 57.0797 1231.6 57.5334 1231.55 57.9923C1231.5 58.5698 1230.87 58.6781 1230.38 58.7503ZM1232.45 44.8387C1232.43 45.0141 1232.4 45.1791 1232.34 45.3337C1231.87 46.5197 1228.71 45.8133 1227.77 45.7978L1220.58 45.6741C1217.62 45.6225 1214.66 45.5761 1211.69 45.5245C1208.67 45.4781 1205.64 45.4266 1202.62 45.3801C1200.02 45.3389 1197.44 45.3028 1194.86 45.2616C1193.21 45.2358 1191.56 45.2152 1189.91 45.1997C1189.7 45.1945 1189.47 45.1945 1189.25 45.1945C1185.23 45.1945 1183.15 47.4581 1183.15 47.4581C1183.02 47.7366 1183 48.412 1182.65 48.5306C1182.28 48.6595 1182.13 48.1387 1182.05 47.8551C1181.87 47.1642 1181.92 46.3908 1181.93 45.6844C1181.95 44.3901 1182.03 43.1062 1182.05 41.812C1182.13 37.6716 1182.27 33.5362 1182.42 29.4009C1182.57 25.2295 1182.75 21.0633 1182.95 16.897C1183.02 15.3501 1183.09 13.8084 1183.18 12.2667C1183.29 10.3022 1183.17 8.54905 1185.24 7.72921C1190.6 5.59452 1197.18 6.29062 1202.85 6.1978C1208.26 6.1153 1213.66 6.6464 1219.06 6.79077C1220.75 6.83718 1222.42 7.13109 1224.13 7.15687C1225.78 7.17749 1227.61 7.32187 1228.78 8.63671C1229.38 9.31218 1229.7 10.1733 1229.85 11.055C1230.01 11.9676 1230.29 12.8339 1230.38 13.7723C1230.94 18.9647 1231.24 24.1776 1231.62 29.3855C1231.79 31.6903 1231.97 33.99 1232.19 36.2845C1232.46 39.0741 1232.67 42.0492 1232.45 44.8387Z" fill="#2F2F2F"/>
<path d="M1178.31 57.1622C1179.54 58.7039 1180.16 56.8528 1180.16 56.8528C1180.47 50.6808 1187.57 50.3714 1187.57 50.3714C1191.73 49.598 1234.54 50.1703 1234.54 50.1703C1235.37 50.2012 1236.18 49.6495 1236.57 48.9328C1237.06 48.0253 1236.89 46.2722 1236.77 45.2667C1236.65 44.2612 1236.65 43.23 1236.54 42.2142C1236.1 38.28 1235.7 34.3458 1235.3 30.4116C1234.77 25.1419 1234.25 19.8773 1233.64 14.618C1233.38 12.3647 1233.25 10.0495 1232.56 7.87874C1231.36 4.10437 1226.89 4.41374 1223.74 4.17655C1218.58 3.78983 1213.47 3.58358 1208.28 3.60937C1205.34 3.62483 1202.4 3.66093 1199.46 3.71765C1196.78 3.76921 1194.09 3.78468 1191.41 3.90327C1190.06 3.96515 1188.7 4.10952 1187.35 4.22812C1184.37 4.49624 1181.37 5.88843 1179.91 8.56968C1179.27 9.76077 1178.96 11.1375 1178.76 12.4678C1178.23 16.1133 1177.9 19.7794 1177.67 23.4506C1177.43 27.1064 1177.41 30.7673 1177.39 34.4283C1177.38 38.8523 1177.11 43.2712 1177.11 47.6901C1177.11 50.9231 1176.92 54.3417 1178.29 57.1828L1178.31 57.1622Z" fill="#D7598B"/>
<path d="M1219.99 18.7481C1220.06 19.372 1219.6 19.8825 1218.98 19.8825H1198.14C1197.51 19.8825 1197 19.3669 1197 18.743V13.6847C1197 13.0556 1197.51 12.5452 1198.14 12.5452H1218.2C1218.82 12.5452 1219.4 13.0556 1219.46 13.6795L1219.99 18.7481Z" fill="white"/>
<path d="M1161 309.1L1168.5 316.5L1135.2 332.4C1135.2 332.4 1130.8 334.4 1128.7 331.2C1120.5 318.4 1161 309.1 1161 309.1Z" fill="#256382"/>
<path d="M1134.4 323.1C1134.4 323.1 1128 325.3 1129.2 329.6C1130.4 334 1135.5 331.3 1135.5 331.3L1167.1 316.6C1167.1 316.6 1165.3 311.9 1168.5 308.8L1134.4 323.1Z" fill="#D9E3E8"/>
<path d="M1139.7 279L1170 308.5L1134.2 322.5L1111.2 286.7L1139.7 279Z" fill="#42ADE2"/>
<path d="M1140.6 285.7L1146.4 291.9L1124.7 299.7L1119.6 291.8L1140.6 285.7Z" fill="white"/>
<path d="M1167 312L1145.9 320.6L1166.7 311.1L1167 312ZM1166.7 314.6L1144.2 323.9L1166.3 313.6L1166.7 314.6ZM1166.9 316L1138.2 328.5L1166.5 315.1L1166.9 316Z" fill="#94989B"/>
<path d="M1128.7 331.2C1125.2 323.9 1134.2 322.6 1134.2 322.6L1111.2 286.7C1111.2 286.7 1106 286.6 1106 292C1106 294.2 1107 295.9 1107 295.9L1128.7 331.2Z" fill="#428BC1"/>
<defs>
<clipPath id="clip0_343_2">
<rect width="64" height="64" fill="white" transform="translate(200 47)"/>
</clipPath>
</defs>
</svg>
