<svg width="1440" height="760" viewBox="0 0 1440 760" fill="none" xmlns="http://www.w3.org/2000/svg">
<path fill-rule="evenodd" clip-rule="evenodd" d="M0 717L60 666C120 616 240 515 360 515C480 515 600 616 720 638C840 659 960 602 1080 537C1200 472 1320 400 1380 364L1440 328V760H1380C1320 760 1200 760 1080 760C960 760 840 760 720 760C600 760 480 760 360 760C240 760 120 760 60 760H0V717Z" fill="#FF6363"/>
<path d="M1273.92 342.015C1273.92 342.015 1274.16 349.42 1274.56 352.44C1274.95 355.46 1275.98 357.3 1275.98 357.3C1276.18 359.155 1275.44 360.97 1275.44 360.97C1275.44 360.97 1264.23 388.115 1262.18 391.27C1261.64 392.105 1260.76 392.905 1259.78 393.03C1257.95 393.26 1253.7 392.11 1251.37 391.465C1242.98 389.15 1232.23 385.715 1228.9 384.555C1227.21 383.97 1225.48 382.49 1224.84 381.585C1221.91 377.5 1223.3 372.32 1223.3 372.32L1273.92 342.015Z" fill="white"/>
<path d="M1259.26 394.795C1257.21 394.795 1254.06 394.01 1250.91 393.14C1242.63 390.855 1231.82 387.405 1228.34 386.2C1226.33 385.505 1224.31 383.825 1223.43 382.605C1220.06 377.91 1221.57 372.12 1221.64 371.88C1221.69 371.66 1221.8 371.454 1221.93 371.273C1222.07 371.093 1222.25 370.941 1222.44 370.827C1222.64 370.714 1222.86 370.64 1223.08 370.61C1223.31 370.581 1223.54 370.596 1223.76 370.655C1223.98 370.714 1224.19 370.816 1224.37 370.955C1224.55 371.094 1224.7 371.266 1224.81 371.464C1224.93 371.661 1225 371.879 1225.03 372.105C1225.06 372.331 1225.04 372.56 1224.99 372.78C1224.96 372.865 1223.87 377.265 1226.25 380.585C1226.74 381.265 1228.2 382.485 1229.48 382.925C1232.92 384.12 1243.63 387.535 1251.84 389.8C1253.37 390.22 1258.02 391.505 1259.58 391.315C1259.85 391.28 1260.34 390.93 1260.74 390.33C1262.18 388.115 1269.36 371.17 1273.83 360.315C1273.84 360.305 1274.33 359.06 1274.28 357.785C1273.92 357.04 1273.17 355.22 1272.84 352.675C1272.44 349.605 1272.19 342.385 1272.19 342.08C1272.18 341.852 1272.22 341.626 1272.3 341.413C1272.38 341.199 1272.5 341.004 1272.66 340.838C1272.81 340.672 1273 340.538 1273.21 340.444C1273.41 340.35 1273.64 340.298 1273.87 340.29C1274.84 340.225 1275.62 341.01 1275.65 341.965C1275.66 342.04 1275.9 349.32 1276.28 352.225C1276.62 354.83 1277.5 356.455 1277.5 356.47C1277.61 356.67 1277.68 356.895 1277.71 357.12C1277.96 359.35 1277.14 361.415 1277.04 361.645C1275.89 364.44 1265.72 389.035 1263.64 392.23C1262.7 393.67 1261.38 394.59 1260.01 394.765C1259.78 394.78 1259.53 394.795 1259.26 394.795Z" fill="#2F2F2F"/>
<path d="M1259.79 394.19C1259.41 394.19 1259.05 394.01 1258.82 393.68C1255.01 388.035 1256.87 379.485 1256.95 379.125C1257.02 378.826 1257.2 378.565 1257.46 378.401C1257.72 378.237 1258.04 378.183 1258.33 378.25C1258.96 378.39 1259.35 379.005 1259.21 379.63C1259.19 379.71 1257.49 387.57 1260.74 392.385C1261.1 392.915 1260.96 393.635 1260.43 393.99C1260.23 394.125 1260.01 394.19 1259.79 394.19V394.19Z" fill="#2F2F2F"/>
<path d="M1271.4 337.435C1268.55 336.385 1258.66 333.08 1250.94 331.75L1250.53 331.68C1249.34 331.47 1247.85 331.205 1246.22 331.205C1245.03 331.205 1243.96 331.34 1242.95 331.625C1241.75 331.96 1240.11 332.645 1239.2 334.005C1233.53 342.44 1222.17 370.485 1221.69 371.675C1221.53 372.065 1221.53 372.49 1221.66 372.865C1221.68 372.885 1221.68 372.905 1221.7 372.925C1222.55 373.69 1223.77 373.16 1224.71 372.92C1225 372.845 1225.31 372.795 1225.61 372.765C1225.79 372.72 1225.99 372.69 1226.22 372.69C1226.87 372.69 1227.67 372.87 1228.51 373.055C1228.83 373.125 1229.15 373.2 1229.48 373.265C1230.08 373.385 1232.93 374.355 1235.43 375.21C1237.2 375.81 1239.04 376.44 1240.56 376.935L1241.24 377.155C1246.05 378.72 1250.2 380.07 1251.35 380.39C1253.87 381.09 1255.54 381.4 1256.75 381.4C1257.18 381.4 1257.56 381.36 1257.9 381.28C1259.98 380.78 1261.11 379.025 1261.78 377.75C1261.91 377.505 1263.21 374.425 1270.58 356.65C1272.67 351.62 1274.34 347.585 1274.47 347.275C1274.8 346.515 1275.2 345.465 1275.46 344.365C1275.85 342.695 1276.09 341.555 1275.58 340.36C1274.96 338.92 1273.41 338.18 1271.4 337.435V337.435Z" fill="#ED6C30"/>
<path d="M1347 208.1L1354.5 215.5L1321.2 231.4C1321.2 231.4 1316.8 233.4 1314.7 230.2C1306.5 217.4 1347 208.1 1347 208.1Z" fill="#256382"/>
<path d="M1320.4 222.1C1320.4 222.1 1314 224.3 1315.2 228.6C1316.4 233 1321.5 230.3 1321.5 230.3L1353.1 215.6C1353.1 215.6 1351.3 210.9 1354.5 207.8L1320.4 222.1Z" fill="#D9E3E8"/>
<path d="M1325.7 178L1356 207.5L1320.2 221.5L1297.2 185.7L1325.7 178Z" fill="#42ADE2"/>
<path d="M1326.6 184.7L1332.4 190.9L1310.7 198.7L1305.6 190.8L1326.6 184.7Z" fill="white"/>
<path d="M1353 211L1331.9 219.6L1352.7 210.1L1353 211ZM1352.7 213.6L1330.2 222.9L1352.3 212.6L1352.7 213.6ZM1352.9 215L1324.2 227.5L1352.5 214.1L1352.9 215Z" fill="#94989B"/>
<path d="M1314.7 230.2C1311.2 222.9 1320.2 221.6 1320.2 221.6L1297.2 185.7C1297.2 185.7 1292 185.6 1292 191C1292 193.2 1293 194.9 1293 194.9L1314.7 230.2" fill="#428BC1"/>
<path d="M123 268.1L130.5 275.5L97.2 291.4C97.2 291.4 92.8 293.4 90.7 290.2C82.5 277.4 123 268.1 123 268.1Z" fill="#547725"/>
<path d="M96.4 282.1C96.4 282.1 90 284.3 91.2 288.6C92.4 293 97.5 290.3 97.5 290.3L129.1 275.6C129.1 275.6 127.3 270.9 130.5 267.8L96.4 282.1Z" fill="#D9E3E8"/>
<path d="M101.7 238L132 267.5L96.2 281.5L73.2 245.7L101.7 238Z" fill="#83BF4F"/>
<path d="M102.6 244.7L108.4 250.9L86.7 258.7L81.6 250.8L102.6 244.7Z" fill="white"/>
<path d="M129 271L107.9 279.6L128.7 270.1L129 271ZM128.7 273.6L106.2 282.9L128.3 272.6L128.7 273.6ZM128.9 275L100.2 287.5L128.5 274.1L128.9 275Z" fill="#94989B"/>
<path d="M90.7 290.2C87.2 282.9 96.2 281.6 96.2 281.6L73.2 245.7C73.2 245.7 68 245.6 68 251C68 253.2 69 254.9 69 254.9L90.7 290.2" fill="#699635"/>
<path d="M317 567.1L324.5 574.5L291.2 590.4C291.2 590.4 286.8 592.4 284.7 589.2C276.5 576.4 317 567.1 317 567.1Z" fill="#547725"/>
<path d="M290.4 581.1C290.4 581.1 284 583.3 285.2 587.6C286.4 592 291.5 589.3 291.5 589.3L323.1 574.6C323.1 574.6 321.3 569.9 324.5 566.8L290.4 581.1Z" fill="#D9E3E8"/>
<path d="M295.7 537L326 566.5L290.2 580.5L267.2 544.7L295.7 537Z" fill="white"/>
<path d="M296.6 543.7L302.4 549.9L280.7 557.7L275.6 549.8L296.6 543.7Z" fill="#B5B5B5"/>
<path d="M323 570L301.9 578.6L322.7 569.1L323 570ZM322.7 572.6L300.2 581.9L322.3 571.6L322.7 572.6ZM322.9 574L294.2 586.5L322.5 573.1L322.9 574Z" fill="#94989B"/>
<path d="M284.7 589.2C281.2 581.9 290.2 580.6 290.2 580.6L267.2 544.7C267.2 544.7 262 544.6 262 550C262 552.2 263 553.9 263 553.9L284.7 589.2" fill="#C2FF7C"/>
<g clip-path="url(#clip0_704_62)">
<path d="M254.9 217.7L262.2 225.3L230.1 241.4C230.1 241.4 225.9 243.5 223.9 240.2C215.9 227.2 254.9 217.7 254.9 217.7" fill="#256382"/>
<path d="M229.2 231.9C229.2 231.9 223.1 234.2 224.2 238.5C225.4 243 230.3 240.3 230.3 240.3L260.8 225.3C260.8 225.3 259.1 220.5 262.2 217.3L229.2 231.9" fill="#D9E3E8"/>
<path d="M234.4 186.9L263.6 217L229.1 231.3L207 194.7L234.4 186.9Z" fill="#42ADE2"/>
<path d="M260.7 220.6L240.3 229.4L260.3 219.7L260.7 220.6ZM260.4 223.2L238.7 232.7L260 222.3L260.4 223.2ZM260.6 224.7L232.9 237.4L260.2 223.8L260.6 224.7Z" fill="#94989B"/>
<path d="M223.8 240.1C220.4 232.6 229.1 231.3 229.1 231.3L207 194.7C207 194.7 202 194.6 202 200.1C202 202.4 203 204.1 203 204.1L223.8 240.1Z" fill="#428BC1"/>
<path d="M208.7 210.2L201.4 217.8L233.5 233.9C233.5 233.9 237.7 236 239.7 232.7C247.7 219.7 208.7 210.2 208.7 210.2" fill="#547725"/>
<path d="M234.3 224.4C234.3 224.4 240.4 226.7 239.3 231C238.1 235.5 233.3 232.8 233.3 232.8L202.8 217.8C202.8 217.8 204.5 213 201.4 209.8L234.3 224.4Z" fill="#D9E3E8"/>
<path d="M229.2 179.4L200 209.5L234.5 223.8L256.6 187.2L229.2 179.4Z" fill="#83BF4F"/>
<path d="M203.2 212.2L223.2 221.9L202.8 213.1L203.2 212.2ZM203.6 214.8L224.8 225.2L203.1 215.7L203.6 214.8ZM203.4 216.3L230.6 229.9L202.9 217.2L203.4 216.3Z" fill="#94989B"/>
<path d="M239.8 232.6C243.2 225.1 234.5 223.8 234.5 223.8L256.6 187.2C256.6 187.2 261.6 187.1 261.6 192.6C261.6 194.9 260.6 196.6 260.6 196.6L239.8 232.6Z" fill="#699635"/>
<path d="M256.7 204L262.8 210.4L235.7 223.9C235.7 223.9 232.1 225.6 230.4 222.9C223.8 212 256.7 204 256.7 204Z" fill="#962C2C"/>
<path d="M235 216C235 216 229.8 217.9 230.8 221.6C231.8 225.4 235.9 223.1 235.9 223.1L261.6 210.4C261.6 210.4 260.2 206.4 262.8 203.7L235 216Z" fill="#D9E3E8"/>
<path d="M239.4 178L264 203.4L234.9 215.5L216.2 184.6L239.4 178Z" fill="#ED4C5C"/>
<path d="M240.1 183.8L244.9 189.1L227.2 195.8L223 189L240.1 183.8Z" fill="white"/>
<path d="M261.6 206.5L244.4 213.8L261.2 205.6L261.6 206.5ZM261.4 208.7L243 216.6L261 207.8L261.4 208.7ZM261.6 209.9L238.2 220.6L261.1 209L261.6 209.9Z" fill="#94989B"/>
<path d="M230.5 222.9C227.7 216.6 235 215.5 235 215.5L216.2 184.6C216.2 184.6 211.9 184.5 211.9 189.1C211.9 191 212.7 192.5 212.7 192.5L230.5 222.9Z" fill="#C94747"/>
</g>
<path d="M144.208 415.475C144.208 415.475 146.09 422.504 157.881 420.705L159.881 416.003L156.49 412.428L147.105 409.423L144.206 415.475" fill="#34484C"/>
<path d="M181.767 402.306C181.767 404.794 180.449 405.45 177.115 406.813L148.652 418.471C146.082 418.47 144 416.453 144 413.962V375.17C144 372.677 145.512 371.848 148.652 370.658L177.114 359C179.686 359 181.766 361.023 181.766 363.512V402.306" fill="#AD7029"/>
<path d="M146.586 417.995C146.586 417.995 157.253 420.963 157.88 420.706C158.499 420.452 157.481 416.221 157.481 416.221L153.623 412.191L150.027 412.029L149.396 412.898L146.586 417.995Z" fill="#34484C"/>
<path d="M176.447 361.687L144.869 374.553L146.35 382.796L151.049 383.254L166.739 380.805L176.491 375.847L183.671 366.313C182.101 363.585 179.797 361.895 176.447 361.687" fill="#F4F5F5"/>
<path d="M153.233 377.405C153.233 376.682 153.367 376.106 153.624 375.615C150.393 375.321 147.34 374.415 145.114 372.47C144.373 373.13 144.009 373.948 144.009 375.169V413.96C144.009 416.45 146.097 418.469 148.663 418.469L153.256 416.59C153.255 416.457 153.234 416.33 153.234 416.196V377.405" fill="#34484C"/>
<path d="M191.819 406.127C191.819 408.618 190.497 409.272 187.168 410.637L157.878 420.707C155.308 420.707 153.222 418.688 153.222 416.197V377.405C153.222 374.915 154.734 374.087 157.878 372.891L187.168 362.824C189.735 362.824 191.819 364.844 191.819 367.336V406.127" fill="#F79420"/>
<path d="M179.691 374.663C179.72 374.739 179.734 374.819 179.732 374.9C179.73 374.981 179.711 375.061 179.677 375.135C179.644 375.208 179.595 375.275 179.535 375.329C179.476 375.384 179.405 375.426 179.329 375.453L163.754 381.282C163.599 381.34 163.428 381.336 163.277 381.271C163.125 381.205 163.004 381.084 162.94 380.932C162.91 380.857 162.896 380.776 162.898 380.695C162.901 380.614 162.919 380.534 162.953 380.461C162.986 380.387 163.034 380.321 163.094 380.266C163.154 380.211 163.224 380.169 163.3 380.142L178.877 374.314C179.032 374.256 179.203 374.26 179.355 374.325C179.507 374.391 179.627 374.512 179.691 374.665M179.691 377.437C179.72 377.513 179.734 377.593 179.732 377.674C179.73 377.755 179.711 377.835 179.677 377.909C179.644 377.982 179.595 378.049 179.535 378.103C179.476 378.158 179.405 378.2 179.329 378.227L163.754 384.046C163.599 384.105 163.428 384.102 163.276 384.036C163.124 383.971 163.003 383.849 162.94 383.696C162.911 383.621 162.898 383.541 162.9 383.46C162.903 383.38 162.921 383.301 162.955 383.228C162.988 383.155 163.036 383.089 163.095 383.035C163.155 382.98 163.224 382.938 163.3 382.911L178.877 377.082C179.032 377.023 179.203 377.027 179.355 377.092C179.507 377.157 179.627 377.279 179.691 377.432M174.397 382.296C174.522 382.612 174.446 382.933 174.224 383.016L163.587 386.995C163.365 387.075 163.085 386.888 162.958 386.575C162.834 386.261 162.913 385.937 163.135 385.853L173.772 381.876C173.99 381.796 174.271 381.982 174.397 382.296" fill="#905A24"/>
<path d="M1230.73 189.75C1229.29 189.972 1187.75 190.704 1186.01 189.843C1183.68 188.698 1183.3 185.476 1184.5 183.202C1185.49 181.335 1188.03 181.289 1189.79 181.258C1192.45 181.212 1228.23 181.232 1230.5 181.562C1231.01 181.64 1231.41 181.567 1231.51 182.155C1231.62 182.856 1231.32 183.723 1231.3 184.439C1231.26 185.306 1231.38 186.162 1231.48 187.018C1231.55 187.631 1231.95 188.379 1231.9 188.987C1231.85 189.57 1231.22 189.678 1230.73 189.75V189.75Z" fill="white"/>
<path d="M1236.77 176.272C1236.65 175.266 1236.65 174.235 1236.54 173.219C1236.1 169.285 1235.7 165.351 1235.3 161.417C1234.77 156.147 1234.25 150.883 1233.64 145.623C1233.38 143.37 1233.25 141.055 1232.56 138.884C1231.36 135.11 1226.89 135.419 1223.74 135.182C1218.58 134.795 1213.47 134.589 1208.28 134.615C1205.34 134.63 1202.4 134.666 1199.46 134.723C1196.78 134.774 1194.09 134.79 1191.41 134.908C1190.06 134.97 1188.7 135.115 1187.35 135.233C1184.37 135.501 1181.37 136.894 1179.91 139.575C1179.27 140.766 1178.96 142.143 1178.76 143.473C1178.23 147.113 1177.9 150.779 1177.67 154.451C1177.43 158.106 1177.41 161.767 1177.39 165.428C1177.38 169.852 1177.11 174.271 1177.11 178.69C1177.11 183.058 1176.76 187.776 1180.38 190.926C1181.6 191.983 1183.01 192.612 1184.51 192.999C1187.01 193.648 1226.91 193.324 1229.51 193.169C1231.77 193.035 1235.94 193.674 1236.18 190.359C1236.25 189.302 1235.6 188.24 1235.13 187.332C1234.63 186.383 1234.21 185.347 1234.16 184.264C1234.11 183.217 1234.41 182.196 1234.54 181.17C1235.37 181.201 1236.18 180.65 1236.57 179.933C1237.06 179.031 1236.89 177.277 1236.77 176.272V176.272ZM1230.38 189.75C1228.94 189.972 1187.4 190.704 1185.66 189.843C1183.33 188.698 1182.95 185.476 1184.16 183.202C1185.14 181.335 1187.68 180.706 1189.44 180.675C1192.1 180.629 1228.06 179.242 1230.33 179.572C1230.66 179.618 1231.08 179.582 1231.27 179.923C1231.37 180.124 1231.36 180.314 1231.29 180.516C1231.02 181.268 1230.88 182.062 1230.82 182.856C1230.73 183.913 1230.63 184.976 1230.72 186.038C1230.78 186.59 1230.87 187.131 1231.06 187.657C1231.21 188.08 1231.6 188.533 1231.55 188.992C1231.5 189.57 1230.87 189.678 1230.38 189.75V189.75ZM1232.45 175.839C1232.43 176.014 1232.4 176.179 1232.34 176.334C1231.87 177.52 1228.71 176.813 1227.77 176.798L1220.58 176.674C1217.62 176.623 1214.66 176.576 1211.69 176.525C1208.67 176.478 1205.64 176.427 1202.62 176.38C1200.02 176.339 1197.44 176.303 1194.86 176.262C1193.21 176.236 1191.56 176.215 1189.91 176.2C1189.7 176.195 1189.47 176.195 1189.25 176.195C1185.23 176.195 1183.15 178.458 1183.15 178.458C1183.02 178.737 1183 179.412 1182.65 179.531C1182.28 179.66 1182.13 179.139 1182.05 178.855C1181.87 178.164 1181.92 177.391 1181.93 176.684C1181.95 175.39 1182.03 174.106 1182.05 172.812C1182.13 168.672 1182.27 164.536 1182.42 160.401C1182.57 156.23 1182.75 152.063 1182.95 147.897C1183.02 146.35 1183.09 144.808 1183.18 143.267C1183.29 141.302 1183.17 139.549 1185.24 138.729C1190.6 136.595 1197.18 137.291 1202.85 137.198C1208.26 137.115 1213.66 137.646 1219.06 137.791C1220.75 137.837 1222.42 138.131 1224.13 138.157C1225.78 138.178 1227.61 138.322 1228.78 139.637C1229.38 140.312 1229.7 141.173 1229.85 142.055C1230.01 142.968 1230.29 143.834 1230.38 144.772C1230.94 149.965 1231.24 155.178 1231.62 160.386C1231.79 162.69 1231.97 164.99 1232.19 167.285C1232.46 170.074 1232.67 173.049 1232.45 175.839V175.839Z" fill="#2F2F2F"/>
<path d="M1178.31 188.162C1179.54 189.704 1180.16 187.853 1180.16 187.853C1180.47 181.681 1187.57 181.371 1187.57 181.371C1191.73 180.598 1234.54 181.17 1234.54 181.17C1235.37 181.201 1236.18 180.649 1236.57 179.933C1237.06 179.025 1236.89 177.272 1236.77 176.267C1236.65 175.261 1236.65 174.23 1236.53 173.214C1236.1 169.28 1235.7 165.346 1235.3 161.412C1234.77 156.142 1234.25 150.877 1233.64 145.618C1233.38 143.365 1233.25 141.049 1232.56 138.879C1231.36 135.104 1226.89 135.414 1223.74 135.177C1218.58 134.79 1213.47 134.584 1208.28 134.609C1205.34 134.625 1202.4 134.661 1199.46 134.718C1196.78 134.769 1194.09 134.785 1191.41 134.903C1190.06 134.965 1188.7 135.109 1187.35 135.228C1184.37 135.496 1181.37 136.888 1179.91 139.57C1179.27 140.761 1178.96 142.137 1178.76 143.468C1178.23 147.113 1177.9 150.779 1177.67 154.451C1177.43 158.106 1177.41 161.767 1177.39 165.428C1177.38 169.852 1177.11 174.271 1177.11 178.69C1177.11 181.923 1176.92 185.342 1178.29 188.183L1178.31 188.162V188.162Z" fill="#D7598B"/>
<path d="M1219.99 149.748C1220.06 150.372 1219.6 150.883 1218.98 150.883H1198.14C1197.51 150.883 1197 150.367 1197 149.743V144.685C1197 144.056 1197.51 143.545 1198.14 143.545H1218.2C1218.82 143.545 1219.4 144.056 1219.46 144.68L1219.99 149.748Z" fill="white"/>
<defs>
<clipPath id="clip0_704_62">
<rect width="64" height="64" fill="white" transform="translate(200 178)"/>
</clipPath>
</defs>
</svg>
