<svg width="66" height="66" viewBox="0 0 66 66" fill="none" xmlns="http://www.w3.org/2000/svg">
<path d="M60.8591 52.7587L37.2744 63.4219C35.8204 64.1077 34.3044 64.0406 32.9122 63.2362L3.14005 48.1181C2.28927 47.5716 2.03661 46.7723 2.08817 46.2155C2.13974 45.6586 2.26864 45.0553 3.76395 44.6222L5.97083 43.8075L35.8358 60.0858L57.059 51.413L60.8591 52.7587Z" fill="#01579B"/>
<path d="M36.9908 61.7152C36.4011 61.9918 35.7539 62.124 35.1029 62.1007C34.4519 62.0774 33.8158 61.8993 33.2474 61.5811L4.18161 46.9374C3.76911 46.7105 3.64536 46.1897 3.89286 45.7875C4.53223 44.7305 5.70786 41.3892 3.76911 38.6152L36.5938 54.4191L36.9908 61.7152Z" fill="#F5F5F5"/>
<path d="M59.6011 51.5522L36.991 61.7152C36.2433 62.04 34.7532 62.6175 33.0361 61.4625C34.3922 61.5605 35.3461 60.9985 35.836 60.0858C36.3155 59.1989 36.1711 57.7449 35.5885 56.925C35.2327 56.43 34.2788 55.6411 33.8611 55.1977L58.3172 45.6328C60.4829 44.7408 62.5144 46.0763 62.8393 47.7005C63.2002 49.5361 60.8593 51.0366 59.6011 51.5522Z" fill="#94C6D6"/>
<path d="M60.7303 44.8387L37.388 55.2544C35.9185 55.837 34.2736 55.7597 32.866 55.0481L3.04221 39.899C2.75346 39.7547 2.32549 39.3576 2.15533 38.8162C1.87689 37.9139 2.22752 36.7795 3.28455 36.4186L35.6039 52.8928L57.7346 43.4208L60.7303 44.8387Z" fill="#01579B"/>
<path d="M62.4886 46.3495L59.9466 45.4265L54.7078 45.7308L37.3931 53.46C35.9236 54.0426 34.2788 53.9653 32.8711 53.2537L3.0422 38.1098C2.27392 37.718 2.43892 36.5784 3.28455 36.4186L24.781 26.8022C25.3945 26.6887 26.0236 26.7558 26.596 26.9981L57.2705 41.6212C57.2705 41.6212 62.1431 44.9573 62.4886 46.3495Z" fill="#0091EA"/>
<path d="M54.4139 45.8803C54.4139 45.8803 57.6417 44.617 60.1786 44.7305C62.7154 44.8439 63.5972 46.6228 63.5972 46.6228C63.1176 44.4417 60.8644 43.328 60.8644 43.328L27.3487 26.4515C27.1167 26.3536 26.2608 26.1525 24.9459 26.6939C23.8837 27.1322 20.4136 28.7564 20.4136 28.7564L54.4139 45.8803Z" fill="#616161"/>
<path d="M63.7417 47.0353C63.4993 46.0711 62.9012 45.0398 61.7978 44.5397C60.3437 43.8848 58.2709 44.055 56.9457 44.7459L54.414 45.87V47.654L57.616 46.2309C60.7304 44.8439 62.1123 46.9219 62.2309 47.4117C62.7259 49.4072 61.7668 50.5622 58.936 51.8615L54.3367 53.9344V55.7287L59.627 53.3723C61.9679 52.4339 64.6389 50.6705 63.7417 47.0353Z" fill="#424242"/>
<path d="M17.0208 46.5661L8.11597 34.2581L9.51331 33.6342L19.5319 47.4014L17.0208 46.5661ZM28.4419 52.238L26.8538 50.9798L54.4139 45.3544V46.2567L50.5519 47.7211L28.4419 52.238Z" fill="#01579B"/>
<path d="M7.63135 23.8115L42.4412 17.9953L57.647 34.7376C58.4153 35.5472 57.9976 36.8878 56.9045 37.1095L20.9654 44.483L7.63135 23.8115Z" fill="#9CCC65"/>
<path d="M56.9044 35.6658L21.2128 42.8948L21.0994 44.5964L56.9044 37.2539C57.915 37.0425 58.3378 35.8875 57.7861 35.0728C57.5901 35.3616 57.2911 35.5884 56.9044 35.6658ZM58.8276 43.4672C59.2041 44.0653 58.8637 44.8542 58.1728 44.9934L25.3172 51.6553C23.3423 52.0627 21.4036 50.7684 21.2283 48.7575C21.0787 47.0559 22.2286 45.5142 23.9044 45.1636L55.5019 38.0686L58.8276 43.4672Z" fill="#689F38"/>
<path d="M28.6635 41.3015L15.5769 22.574L8.11068 24.5489C6.38333 26.2659 7.02787 29.0864 7.02787 29.0864C7.02787 29.0864 18.4593 47.4323 20.264 49.7784C22.0686 52.1245 24.7035 51.7584 24.7035 51.7584L29.1533 50.8612L28.6893 42.5597L28.6635 41.3015Z" fill="#616161"/>
<path d="M28.6636 41.4253L22.3782 42.7247C20.6611 43.1114 20.3518 44.7253 20.3518 44.7253L5.17691 22.9814C5.17691 22.9814 3.01644 25.5956 4.44988 27.8179L20.2641 49.7784C21.9914 52.2379 24.7036 51.779 24.7036 51.779L29.1535 50.8819L28.6946 42.7453L28.6636 41.4253Z" fill="#424242"/>
<path d="M56.8476 42.7968C57.0074 43.1475 56.8012 43.5548 56.4248 43.6322L25.0078 50.0775C23.0329 50.4848 21.6356 49.1751 21.7078 47.3911C21.8006 45.1378 23.0638 44.1839 24.7345 43.8384L56.3062 37.3879C56.3062 37.3879 55.2337 38.5945 56.0535 40.8529C56.332 41.6315 56.631 42.3225 56.8476 42.7968Z" fill="#B9E4EA"/>
<path d="M23.3114 43.1578L9.84839 24.1106" stroke="#424242" stroke-width="2.071" stroke-miterlimit="10"/>
<path d="M24.3685 35.0367L7.05379 26.3123L6.35254 27.6942L26.3588 37.8881L24.3685 35.0367Z" fill="#424242"/>
<path d="M56.0948 33.0155L54.8264 31.6233L35.3203 40.5745L24.3684 35.1553L26.235 37.8263L33.4898 41.5336L38.8936 40.7034L56.0948 33.0155Z" fill="#689F38"/>
<path d="M60.854 29.5711L37.2744 40.2342C35.8204 40.92 34.3044 40.8529 32.9122 40.0486L3.14005 24.9304C2.28927 24.3839 2.03661 23.5847 2.08817 23.0278C2.13974 22.4709 2.26864 21.8676 3.76395 21.4345L5.1613 20.9189L35.7482 35.9287L60.5858 25.6523L60.854 29.5711Z" fill="#C62828"/>
<path d="M36.9857 38.5275C36.396 38.8042 35.7488 38.9363 35.0978 38.913C34.4468 38.8897 33.8107 38.7116 33.2423 38.3934L4.17648 23.7497C3.76398 23.5228 3.64023 23.002 3.88773 22.5998C4.52711 21.5428 5.70273 18.2016 3.76398 15.4275L35.8565 31.7522L36.9857 38.5275Z" fill="#F5F5F5"/>
<path d="M59.596 28.3645L36.9859 38.5275C36.2382 38.8523 34.748 39.4298 33.031 38.2748C34.3871 38.3728 35.341 37.8108 35.8308 36.8981C36.3104 36.0112 36.166 34.5572 35.5834 33.7373C35.2276 33.2423 34.2737 32.4534 33.856 32.01L58.3121 22.4451C60.4777 21.5531 62.5093 22.8886 62.8341 24.5128C63.1951 26.3484 60.8541 27.8489 59.596 28.3645Z" fill="#94C6D6"/>
<path d="M60.7304 21.6511L37.388 32.0667C35.9185 32.6494 34.2736 32.5721 32.866 31.8605L3.03707 16.7114C2.72769 16.5567 2.26363 16.1597 2.1141 15.5977C1.89238 14.7624 2.18113 13.6641 3.27941 13.231L30.6127 7.44049L60.7304 21.6511Z" fill="#C62828"/>
<path d="M62.4834 23.1619L59.9414 22.2389L54.7027 22.5431L37.388 30.2724C35.9184 30.855 34.2736 30.7777 32.8659 30.0661L3.03704 14.9171C2.26876 14.5252 2.54204 13.4888 3.27938 13.2258L24.7809 3.61455C25.3945 3.50111 26.0236 3.56815 26.5959 3.81049L57.2705 18.4336C57.2705 18.4336 62.138 21.7646 62.4834 23.1619Z" fill="#F44336"/>
<path d="M54.4139 22.6875C54.4139 22.6875 57.1003 21.7439 59.6371 21.8573C62.174 21.9708 63.6023 23.43 63.6023 23.43C63.0815 21.0994 60.8695 20.1351 60.8695 20.1351L27.3539 3.25874C27.1218 3.16077 26.2659 2.95968 24.951 3.50108C23.8889 3.93936 20.4187 5.56358 20.4187 5.56358L54.4139 22.6875Z" fill="#616161"/>
<path d="M57.482 21.584L23.1877 4.28482L24.3221 3.77435L59.199 21.254L57.482 21.584Z" fill="#424242"/>
<path d="M63.7363 23.8477C63.494 22.8835 63.0866 21.9502 61.9368 21.4655C60.4672 20.8467 59.1266 20.7178 56.9404 21.5583L54.4086 22.6824V24.4664L57.6107 23.0433C59.2349 22.2802 61.6274 22.4452 62.2255 24.2241C62.8804 26.1731 61.7615 27.3745 58.9307 28.6739L54.3313 30.7467V32.5411L59.6216 30.1847C61.9677 29.2463 64.6386 27.4828 63.7363 23.8477Z" fill="#424242"/>
</svg>
