<svg width="2476" height="1845" viewBox="0 0 2476 1845" fill="none" xmlns="http://www.w3.org/2000/svg">
<path d="M2475.08 1620.68H0V1621.92H2475.08V1620.68Z" fill="#EBEBEB"/>
<path d="M423.635 1667.81H259.686V1669.05H423.635V1667.81Z" fill="#EBEBEB"/>
<path d="M890.188 1654.39H847.171V1655.63H890.188V1654.39Z" fill="#EBEBEB"/>
<path d="M523.579 1713.8H428.585V1715.03H523.579V1713.8Z" fill="#EBEBEB"/>
<path d="M2227.08 1705.48H2013.28V1706.72H2227.08V1705.48Z" fill="#EBEBEB"/>
<path d="M1969.17 1705.48H1937.84V1706.72H1969.17V1705.48Z" fill="#EBEBEB"/>
<path d="M1835.97 1684.59H1372.23V1685.83H1835.97V1684.59Z" fill="#EBEBEB"/>
<path d="M1173.19 1399.91H217.411C209.915 1399.91 202.725 1396.93 197.424 1391.63C192.124 1386.33 189.146 1379.14 189.146 1371.64V28.0179C189.211 20.5644 192.218 13.4384 197.511 8.19106C202.805 2.94368 209.957 -0.000285753 217.411 2.08033e-08H1173.19C1180.68 2.08034e-08 1187.87 2.97796 1193.17 8.27875C1198.48 13.5795 1201.45 20.769 1201.45 28.2654V1371.64C1201.45 1379.14 1198.48 1386.33 1193.17 1391.63C1187.87 1396.93 1180.68 1399.91 1173.19 1399.91ZM217.411 0.990036C210.247 1.00312 203.38 3.85489 198.314 8.92077C193.248 13.9866 190.396 20.8537 190.383 28.0179V1371.64C190.396 1378.8 193.248 1385.67 198.314 1390.74C203.38 1395.8 210.247 1398.66 217.411 1398.67H1173.19C1180.35 1398.66 1187.22 1395.8 1192.29 1390.74C1197.35 1385.67 1200.2 1378.8 1200.22 1371.64V28.0179C1200.2 20.8537 1197.35 13.9866 1192.29 8.92077C1187.22 3.85489 1180.35 1.00312 1173.19 0.990036H217.411Z" fill="#EBEBEB"/>
<path d="M2243.96 1399.91H1288.08C1280.59 1399.89 1273.41 1396.91 1268.11 1391.61C1262.81 1386.31 1259.83 1379.13 1259.82 1371.64V28.0179C1259.89 20.5685 1262.91 13.45 1268.2 8.20535C1273.49 2.96073 1280.63 0.0126144 1288.08 0H2243.96C2251.39 0.0257631 2258.52 2.98123 2263.79 8.22582C2269.07 13.4704 2272.06 20.5815 2272.12 28.0179V1371.64C2272.12 1379.12 2269.16 1386.29 2263.88 1391.59C2258.6 1396.89 2251.44 1399.88 2243.96 1399.91ZM1288.08 0.990036C1280.92 1.00312 1274.05 3.85489 1268.98 8.92077C1263.92 13.9866 1261.07 20.8537 1261.05 28.0179V1371.64C1261.07 1378.8 1263.92 1385.67 1268.98 1390.74C1274.05 1395.8 1280.92 1398.66 1288.08 1398.67H2243.96C2251.12 1398.66 2257.99 1395.8 2263.05 1390.74C2268.12 1385.67 2270.97 1378.8 2270.99 1371.64V28.0179C2270.97 20.8537 2268.12 13.9866 2263.05 8.92077C2257.99 3.85489 2251.12 1.00312 2243.96 0.990036H1288.08Z" fill="#EBEBEB"/>
<path d="M1258.68 92.4692H303.89V1156.7H1258.68V92.4692Z" fill="#EBEBEB"/>
<path d="M1289.67 92.4692H318.345V1156.7H1289.67V92.4692Z" fill="#F5F5F5"/>
<path d="M1258.68 1156.7H303.89V1214.37H1258.68V1156.7Z" fill="#EBEBEB"/>
<path d="M1437.08 1156.7H465.761V1214.37H1437.08V1156.7Z" fill="#F0F0F0"/>
<path d="M1246.25 1113.24V135.882L361.807 135.882L361.807 1113.24H1246.25Z" fill="#FAFAFA"/>
<path d="M397.745 1113.24L652.778 135.882H773.166L518.133 1113.24H397.745Z" fill="white"/>
<path d="M381.955 697.973C381.127 697.973 380.334 697.644 379.749 697.059C379.165 696.474 378.836 695.681 378.836 694.854V164.147C378.931 163.394 379.298 162.702 379.868 162.2C380.437 161.698 381.171 161.421 381.93 161.421C382.689 161.421 383.422 161.698 383.992 162.2C384.561 162.702 384.928 163.394 385.024 164.147V694.656C385.051 695.078 384.991 695.501 384.85 695.899C384.708 696.297 384.487 696.662 384.2 696.973C383.913 697.283 383.566 697.531 383.18 697.703C382.794 697.875 382.377 697.967 381.955 697.973Z" fill="#F1F1F1"/>
<path d="M543.973 1113.24L799.006 135.882H845.933L590.95 1113.24H543.973Z" fill="white"/>
<path d="M1246.3 1113.29V135.932H1240.81V1113.29H1246.3Z" fill="#EBEBEB"/>
<path d="M1299.96 182.81H345.175L341.165 152.762H1296L1299.96 182.81Z" fill="#EBEBEB"/>
<path d="M1299.96 204.838H345.175L341.165 174.79H1296L1299.96 204.838Z" fill="#EBEBEB"/>
<path d="M1299.96 231.222H345.175L341.165 201.175H1296L1299.96 231.222Z" fill="#EBEBEB"/>
<path d="M1299.96 260.576H345.175L341.165 230.529H1296L1299.96 260.576Z" fill="#EBEBEB"/>
<path d="M1299.96 295.772H345.175L341.165 265.725H1296L1299.96 295.772Z" fill="#EBEBEB"/>
<path d="M1299.96 335.374H345.175L341.165 305.326H1296L1299.96 335.374Z" fill="#EBEBEB"/>
<path d="M384.479 1090.22H491.205V1100.77H484.423L478.879 1156.7H396.755L391.211 1100.77H384.479V1090.22Z" fill="#EBEBEB"/>
<path d="M376.608 992.26C375.222 987.607 373.985 982.904 372.797 978.201C365.817 987.26 359.035 989.537 353.986 989.537H352.352C342.452 988.547 332.552 978.845 326.661 963.549C326.526 963.271 326.455 962.967 326.455 962.658C326.455 962.349 326.526 962.044 326.661 961.767C326.792 961.491 326.986 961.249 327.226 961.06C327.467 960.871 327.748 960.74 328.047 960.678C335.228 958.85 342.714 958.557 350.016 959.82C357.317 961.082 364.27 963.871 370.421 968.004C369.48 963.549 368.738 959.094 368.094 954.639C366.463 954.957 364.806 955.123 363.144 955.134C346.808 955.134 334.779 940.531 334.235 939.838C334.026 939.572 333.881 939.262 333.813 938.932C333.744 938.601 333.754 938.259 333.84 937.932C333.926 937.606 334.088 937.304 334.311 937.05C334.534 936.797 334.813 936.599 335.126 936.472C338.937 934.535 343.122 933.444 347.393 933.273C351.665 933.102 355.923 933.856 359.877 935.482C364.157 937.629 367.63 941.101 369.777 945.382C372.849 936.007 378.441 927.658 385.941 921.249C393.441 914.841 402.56 910.619 412.299 909.048C412.602 908.973 412.918 908.968 413.223 909.032C413.528 909.097 413.815 909.229 414.062 909.419C414.309 909.609 414.51 909.852 414.651 910.131C414.791 910.409 414.867 910.716 414.873 911.028C415.715 925.878 415.269 944.045 404.131 952.708C399.497 956.121 393.844 957.866 388.093 957.658C382.929 957.533 377.803 956.734 372.846 955.282C374.438 965.995 376.72 976.594 379.677 987.013C390.556 972.217 405.976 961.387 423.585 956.173C424.136 956.037 424.719 956.121 425.209 956.407C425.699 956.694 426.058 957.161 426.209 957.708C429.575 970.479 427.842 980.875 421.259 987.706C417.919 990.722 414.007 993.034 409.755 994.506C405.502 995.977 400.997 996.577 396.508 996.27C391.669 996.21 386.846 995.696 382.103 994.735C384.826 1003.5 387.895 1012.06 391.162 1020.23C397.844 1014.34 417.447 999.339 438.782 1005.63C439.076 1005.7 439.349 1005.85 439.58 1006.04C439.811 1006.24 439.996 1006.49 440.119 1006.76C440.24 1007.04 440.303 1007.33 440.303 1007.63C440.303 1007.93 440.24 1008.22 440.119 1008.5C434.327 1022.65 427.743 1030.48 419.427 1033.25C417.218 1033.95 414.913 1034.3 412.596 1034.29C406.313 1033.98 400.191 1032.2 394.726 1029.09C399.379 1039.88 404.181 1050.03 408.834 1059.04C413.784 1053.64 427.545 1042.45 451.851 1047.65C452.362 1047.76 452.815 1048.05 453.126 1048.47C453.436 1048.89 453.581 1049.41 453.534 1049.93C452.995 1054.47 451.276 1058.78 448.549 1062.45C445.821 1066.11 442.181 1069 437.99 1070.82C434.863 1072.16 431.494 1072.85 428.09 1072.85C423.291 1072.77 418.578 1071.57 414.328 1069.33C425.12 1089.13 433.733 1101.81 434.129 1102.1C434.359 1102.57 434.411 1103.11 434.276 1103.62C434.142 1104.12 433.83 1104.56 433.397 1104.86C432.964 1105.15 432.44 1105.28 431.92 1105.22C431.399 1105.16 430.919 1104.92 430.565 1104.53C421.986 1091.54 414.104 1078.11 406.953 1064.28C406.8 1064.09 406.683 1063.87 406.606 1063.64C405.171 1060.92 403.785 1058.15 402.349 1055.28C399.901 1058.96 396.606 1062.01 392.739 1064.16C388.873 1066.32 384.547 1067.51 380.123 1067.65C379.216 1067.7 378.307 1067.7 377.4 1067.65C372.51 1067.09 367.871 1065.19 363.993 1062.16C360.115 1059.13 357.149 1055.08 355.422 1050.47C355.244 1050 355.246 1049.47 355.428 1049C355.611 1048.52 355.961 1048.13 356.412 1047.9C362.699 1044.35 369.742 1042.35 376.955 1042.07C384.169 1041.78 391.347 1043.22 397.894 1046.27C394.825 1039.68 391.706 1032.7 388.736 1025.43C388.57 1025.15 388.453 1024.85 388.39 1024.53C387.548 1022.46 386.707 1020.38 385.915 1018.3C378.786 1027.31 371.658 1031.71 364.282 1031.71C355.273 1031.71 346.214 1025.08 336.512 1011.47C336.178 1011.01 336.038 1010.45 336.122 1009.89C336.205 1009.33 336.506 1008.83 336.957 1008.5C352.204 997.062 373.143 1004.88 382.647 1009.44C380.717 1004.09 378.885 998.596 377.202 993.002L376.608 992.26Z" fill="#EBEBEB"/>
<path d="M488.433 1049.83C485.033 1050.89 481.497 1051.44 477.938 1051.46C473.568 1051.52 469.244 1050.56 465.302 1048.68C461.359 1046.79 457.904 1044.02 455.204 1040.59C452.505 1037.15 450.633 1033.14 449.733 1028.86C448.834 1024.58 448.932 1020.15 450.019 1015.92C450.138 1015.43 450.437 1015 450.859 1014.71C451.281 1014.43 451.794 1014.31 452.296 1014.39C460.63 1015.21 468.643 1018.03 475.663 1022.59C482.684 1027.16 488.506 1033.34 492.64 1040.62C497.59 1029.83 502.095 1018.4 506.154 1006.52C500.964 1009.48 495.146 1011.18 489.175 1011.47C486.818 1011.47 484.477 1011.09 482.245 1010.33C470.463 1006.32 463.385 991.913 457.494 976.914C457.371 976.633 457.308 976.33 457.308 976.023C457.308 975.717 457.371 975.413 457.494 975.132C457.62 974.862 457.806 974.623 458.038 974.435C458.269 974.246 458.54 974.112 458.831 974.043C483.037 967.311 502.639 990.428 508.728 998.794C511.929 988.83 514.589 978.701 516.698 968.45C511.654 969.401 506.535 969.898 501.402 969.935C496.287 970.296 491.153 969.604 486.317 967.901C481.48 966.198 477.045 963.52 473.285 960.034C466.058 952.362 464.325 940.877 468.335 926.819C468.404 926.544 468.527 926.286 468.697 926.06C468.867 925.834 469.08 925.644 469.324 925.501C469.569 925.358 469.839 925.265 470.12 925.228C470.4 925.191 470.685 925.21 470.958 925.284C490.138 931.348 506.809 943.517 518.431 959.935L519.322 954.441C519.384 953.976 519.592 953.543 519.916 953.203C520.89 949.71 522.57 946.455 524.851 943.636C527.133 940.818 529.968 938.498 533.182 936.818C540.36 933.403 549.418 933.898 560.061 938.254C560.378 938.384 560.66 938.587 560.884 938.847C561.108 939.106 561.268 939.415 561.35 939.748C561.432 940.081 561.434 940.428 561.356 940.762C561.279 941.096 561.123 941.407 560.903 941.669C560.259 942.412 547.092 958.005 529.321 958.005C527.426 957.973 525.538 957.775 523.678 957.411C522.886 962.361 521.945 967.608 520.807 972.657C527.646 968.144 535.367 965.135 543.457 963.83C551.547 962.524 559.822 962.951 567.734 965.084C568.03 965.166 568.306 965.31 568.542 965.506C568.779 965.702 568.972 965.946 569.107 966.222C569.243 966.498 569.318 966.799 569.329 967.106C569.34 967.414 569.286 967.719 569.17 968.004C562.239 984.736 551.597 995.23 540.558 996.171H539.073C533.479 996.171 525.955 993.596 518.282 983.3C515.206 995.029 511.538 1006.59 507.293 1017.95C517.688 1013 541.053 1004.54 557.735 1017.46C558.168 1017.81 558.451 1018.31 558.525 1018.86C558.598 1019.41 558.457 1019.97 558.131 1020.43C547.389 1035.28 537.39 1042.26 527.638 1042.26C519.52 1042.26 511.748 1037.31 504.026 1027.06C499.57 1038.15 494.818 1048.69 490.066 1058.44C500.412 1052.01 511.847 1053 525.311 1061.51C525.602 1061.7 525.844 1061.96 526.016 1062.26C526.189 1062.56 526.286 1062.9 526.301 1063.25C526.309 1063.6 526.232 1063.95 526.077 1064.27C525.922 1064.59 525.694 1064.86 525.41 1065.08C517.284 1070.58 507.793 1073.74 497.986 1074.19C492.894 1074.27 487.905 1072.74 483.73 1069.83C474.546 1087.66 464.297 1104.91 453.039 1121.51C452.816 1121.83 452.52 1122.09 452.176 1122.27C451.831 1122.45 451.448 1122.55 451.059 1122.55C450.577 1122.54 450.109 1122.39 449.722 1122.1C449.465 1121.92 449.245 1121.7 449.076 1121.43C448.906 1121.17 448.791 1120.88 448.736 1120.57C448.68 1120.26 448.687 1119.94 448.754 1119.64C448.821 1119.33 448.949 1119.04 449.128 1118.79C463.99 1096.85 477.131 1073.8 488.433 1049.83Z" fill="#EBEBEB"/>
<path d="M2115.8 473.235H1891.8V719.209H2115.8V473.235Z" fill="#EBEBEB"/>
<path d="M2092.53 488.927C2092.32 488.992 2092.1 488.992 2091.89 488.927C2091.29 488.581 2031.55 453.039 2012.69 453.039C1993.83 453.039 1936.65 488.581 1936.11 488.927C1935.82 489.097 1935.48 489.15 1935.16 489.076C1934.84 489.003 1934.56 488.807 1934.37 488.531C1934.29 488.396 1934.22 488.244 1934.2 488.085C1934.17 487.925 1934.17 487.762 1934.21 487.604C1934.25 487.447 1934.32 487.298 1934.41 487.168C1934.51 487.038 1934.63 486.929 1934.77 486.848C1937.15 485.363 1992.98 450.563 2012.69 450.563C2032.39 450.563 2090.85 485.215 2093.32 486.799C2093.6 486.981 2093.8 487.263 2093.87 487.586C2093.94 487.908 2093.89 488.247 2093.72 488.531C2093.58 488.701 2093.39 488.828 2093.18 488.898C2092.97 488.968 2092.75 488.978 2092.53 488.927Z" fill="#EBEBEB"/>
<path d="M2140.05 473.235H1908.68V719.209H2140.05V473.235Z" fill="#F5F5F5"/>
<path d="M2120.7 699.854V492.64H1928.09V699.854H2120.7Z" fill="white"/>
<path d="M2029.57 621.245C2026.47 621.262 2023.38 621.61 2020.36 622.285C2021.13 619.631 2021.53 616.881 2021.55 614.117C2021.55 607.414 2019.19 600.925 2014.86 595.801C2017.03 596.492 2019.28 596.859 2021.55 596.89C2026.93 596.944 2032.17 595.174 2036.43 591.87C2040.68 588.565 2043.69 583.92 2044.96 578.689C2046.24 573.458 2045.71 567.949 2043.46 563.058C2041.21 558.167 2037.37 554.18 2032.56 551.747C2027.76 549.314 2022.28 548.577 2017 549.656C2011.73 550.735 2006.97 553.567 2003.51 557.69C2000.05 561.814 1998.08 566.988 1997.93 572.37C1997.78 577.753 1999.46 583.027 2002.69 587.336C1998.79 585.914 1994.63 585.359 1990.5 585.709C1986.37 586.059 1982.36 587.306 1978.76 589.364C1975.16 591.422 1972.05 594.24 1969.65 597.623C1967.25 601.005 1965.62 604.87 1964.87 608.949C1964.12 613.027 1964.26 617.221 1965.3 621.236C1966.33 625.252 1968.23 628.994 1970.86 632.201C1973.49 635.408 1976.79 638.002 1980.52 639.803C1984.26 641.604 1988.34 642.569 1992.49 642.63C1988.65 649.157 1986.64 656.592 1986.65 664.163C1986.65 672.651 1989.17 680.949 1993.88 688.007C1998.6 695.065 2005.3 700.566 2013.14 703.814C2020.98 707.062 2029.61 707.912 2037.94 706.256C2046.26 704.6 2053.91 700.513 2059.91 694.511C2065.92 688.508 2070 680.861 2071.66 672.536C2073.32 664.211 2072.47 655.581 2069.22 647.739C2065.97 639.897 2060.47 633.194 2053.41 628.478C2046.35 623.762 2038.05 621.245 2029.57 621.245Z" fill="#F5F5F5"/>
<path d="M1988.08 529.271C1988.09 533.943 1986.72 538.513 1984.13 542.403C1981.54 546.292 1977.86 549.327 1973.54 551.121C1969.23 552.916 1964.48 553.391 1959.9 552.485C1955.31 551.58 1951.1 549.335 1947.79 546.035C1944.49 542.734 1942.23 538.527 1941.32 533.945C1940.4 529.364 1940.87 524.614 1942.65 520.296C1944.44 515.979 1947.46 512.288 1951.35 509.691C1955.23 507.095 1959.8 505.709 1964.47 505.708C1970.72 505.722 1976.71 508.207 1981.14 512.621C1985.56 517.036 1988.06 523.021 1988.08 529.271Z" fill="#F5F5F5"/>
<path d="M1812.4 239.885H1559.25V517.836H1812.4V239.885Z" fill="#EBEBEB"/>
<path d="M1781.17 251.27C1780.96 251.321 1780.74 251.321 1780.52 251.27C1779.93 250.874 1720.13 215.332 1701.32 215.332C1682.51 215.332 1625.34 250.874 1624.79 251.221C1624.65 251.311 1624.5 251.372 1624.33 251.401C1624.17 251.43 1624 251.426 1623.84 251.389C1623.68 251.353 1623.53 251.283 1623.39 251.186C1623.26 251.089 1623.14 250.966 1623.06 250.825C1622.89 250.548 1622.84 250.217 1622.91 249.903C1622.99 249.588 1623.18 249.315 1623.45 249.142C1625.83 247.657 1681.62 212.857 1701.32 212.857C1721.02 212.857 1779.53 247.508 1782.01 249.142C1782.15 249.223 1782.27 249.332 1782.37 249.462C1782.46 249.592 1782.53 249.74 1782.57 249.898C1782.61 250.055 1782.61 250.219 1782.58 250.378C1782.55 250.538 1782.49 250.69 1782.4 250.825C1782.27 251.013 1782.07 251.155 1781.85 251.234C1781.63 251.314 1781.39 251.326 1781.17 251.27Z" fill="#EBEBEB"/>
<path d="M1839.78 239.885H1578.31V517.836H1839.78V239.885Z" fill="#F5F5F5"/>
<path d="M1817.9 495.907V261.765H1600.24V495.907H1817.9Z" fill="white"/>
<path d="M1631.38 287.604H1627.56C1623.22 287.604 1619.69 291.128 1619.69 295.475V502.293C1619.69 506.64 1623.22 510.164 1627.56 510.164H1631.38C1635.72 510.164 1639.25 506.64 1639.25 502.293V295.475C1639.25 291.128 1635.72 287.604 1631.38 287.604Z" fill="#F5F5F5"/>
<path d="M1694.69 398.884H1680.88H1679.49V355.471C1679.49 353.384 1678.66 351.382 1677.19 349.906C1675.71 348.43 1673.71 347.601 1671.62 347.601H1657.86C1655.77 347.601 1653.77 348.43 1652.29 349.906C1650.82 351.382 1649.99 353.384 1649.99 355.471V502.145C1649.99 504.232 1650.82 506.234 1652.29 507.71C1653.77 509.186 1655.77 510.015 1657.86 510.015H1671.62C1673.3 510.023 1674.93 509.484 1676.27 508.481C1677.59 509.49 1679.21 510.03 1680.88 510.015H1694.69C1696.78 510.015 1698.78 509.186 1700.25 507.71C1701.73 506.234 1702.56 504.232 1702.56 502.145V406.755C1702.56 405.721 1702.35 404.698 1701.96 403.743C1701.56 402.788 1700.98 401.92 1700.25 401.19C1699.52 400.459 1698.65 399.879 1697.7 399.483C1696.74 399.088 1695.72 398.884 1694.69 398.884Z" fill="#F5F5F5"/>
<path d="M1770.33 339.829H1719.34C1714.99 339.829 1711.47 343.352 1711.47 347.699V502.243C1711.47 506.59 1714.99 510.114 1719.34 510.114H1770.33C1774.67 510.114 1778.2 506.59 1778.2 502.243V347.699C1778.2 343.352 1774.67 339.829 1770.33 339.829Z" fill="#F5F5F5"/>
<path d="M1782.55 321.216C1795.87 321.216 1806.66 310.423 1806.66 297.109C1806.66 283.795 1795.87 273.001 1782.55 273.001C1769.24 273.001 1758.45 283.795 1758.45 297.109C1758.45 310.423 1769.24 321.216 1782.55 321.216Z" fill="#F5F5F5"/>
<path d="M906.573 1089.88C906.573 1126.76 946.471 1156.7 995.675 1156.7C1044.88 1156.7 1084.78 1126.76 1084.78 1089.88H906.573Z" fill="#EBEBEB"/>
<path d="M1237.54 1844.23C1767.62 1844.23 2197.33 1819.14 2197.33 1788.2C2197.33 1757.25 1767.62 1732.16 1237.54 1732.16C707.465 1732.16 277.754 1757.25 277.754 1788.2C277.754 1819.14 707.465 1844.23 1237.54 1844.23Z" fill="#F5F5F5"/>
<path d="M1696.07 1793.69C1745.48 1793.69 1785.52 1791.23 1785.52 1788.2C1785.52 1785.16 1745.48 1782.7 1696.07 1782.7C1646.67 1782.7 1606.62 1785.16 1606.62 1788.2C1606.62 1791.23 1646.67 1793.69 1696.07 1793.69Z" fill="#E6E6E6"/>
<path d="M1088.44 1658.25H1870.42C1946.53 1658.25 2008.23 1596.55 2008.23 1520.44V1078.49C2008.23 1002.38 1946.53 940.679 1870.42 940.679L1088.44 940.679C1012.33 940.679 950.629 1002.38 950.629 1078.49V1520.44C950.629 1596.55 1012.33 1658.25 1088.44 1658.25Z" fill="#263238"/>
<path d="M1734.04 1788.2H1660.04L1509.65 1431.88H1622.91L1734.04 1788.2Z" fill="#263238"/>
<path d="M2030.51 1263.13H2025.56V1299.47H2030.51V1263.13Z" fill="#FF725E"/>
<path opacity="0.2" d="M2030.51 1263.13H2025.56V1299.47H2030.51V1263.13Z" fill="black"/>
<path d="M2030.51 1108.24H2025.56V1238.33H2030.51V1108.24Z" fill="#FF725E"/>
<path opacity="0.2" d="M2030.51 1108.24H2025.56V1238.33H2030.51V1108.24Z" fill="black"/>
<path d="M1401.59 918.403H1334.46V923.353H1401.59V918.403Z" fill="#FF725E"/>
<path opacity="0.2" d="M1401.59 918.403H1334.46V923.353H1401.59V918.403Z" fill="black"/>
<path d="M1937.69 1431.88L1733.89 1788.2L1583.51 1431.88H1937.69Z" fill="#FF725E"/>
<path opacity="0.2" d="M1937.74 1431.88L1733.94 1788.2L1583.56 1431.88H1937.74Z" fill="black"/>
<path d="M1150.66 1658.25H1870.42C1946.53 1658.25 2008.23 1596.55 2008.23 1520.44V1078.49C2008.23 1002.38 1946.53 940.679 1870.42 940.679L1150.66 940.679C1074.55 940.679 1012.85 1002.38 1012.85 1078.49L1012.85 1520.44C1012.85 1596.55 1074.55 1658.25 1150.66 1658.25Z" fill="#FF725E"/>
<path opacity="0.2" d="M1150.66 1658.25H1870.42C1946.53 1658.25 2008.23 1596.55 2008.23 1520.44V1078.49C2008.23 1002.38 1946.53 940.679 1870.42 940.679L1150.66 940.679C1074.55 940.679 1012.85 1002.38 1012.85 1078.49L1012.85 1520.44C1012.85 1596.55 1074.55 1658.25 1150.66 1658.25Z" fill="black"/>
<path opacity="0.7" d="M1399.66 1658.25H1267.98L1407.28 940.679H1539.01L1399.66 1658.25Z" fill="#FF725E"/>
<path opacity="0.7" d="M1518.61 1658.25H1443.71L1583.06 940.679H1657.91L1518.61 1658.25Z" fill="#FF725E"/>
<path d="M1829.68 1172.2H1463.76C1453.87 1171.84 1444.51 1167.66 1437.63 1160.54C1430.76 1153.42 1426.92 1143.9 1426.92 1134.01C1426.92 1124.11 1430.76 1114.6 1437.63 1107.48C1444.51 1100.35 1453.87 1096.17 1463.76 1095.82H1829.68C1834.81 1095.63 1839.93 1096.48 1844.72 1098.32C1849.51 1100.16 1853.89 1102.94 1857.59 1106.5C1861.28 1110.07 1864.22 1114.34 1866.23 1119.07C1868.23 1123.79 1869.27 1128.87 1869.27 1134.01C1869.27 1139.14 1868.23 1144.22 1866.23 1148.95C1864.22 1153.67 1861.28 1157.95 1857.59 1161.51C1853.89 1165.08 1849.51 1167.86 1844.72 1169.7C1839.93 1171.53 1834.81 1172.38 1829.68 1172.2Z" fill="white"/>
<path d="M1338.37 1172.2H1172.64C1162.75 1171.84 1153.39 1167.66 1146.51 1160.54C1139.64 1153.42 1135.8 1143.9 1135.8 1134.01C1135.8 1124.11 1139.64 1114.6 1146.51 1107.48C1153.39 1100.35 1162.75 1096.17 1172.64 1095.82H1338.37C1343.51 1095.63 1348.62 1096.48 1353.42 1098.32C1358.21 1100.16 1362.59 1102.94 1366.28 1106.5C1369.98 1110.07 1372.92 1114.34 1374.92 1119.07C1376.93 1123.79 1377.97 1128.87 1377.97 1134.01C1377.97 1139.14 1376.93 1144.22 1374.92 1148.95C1372.92 1153.67 1369.98 1157.95 1366.28 1161.51C1362.59 1165.08 1358.21 1167.86 1353.42 1169.7C1348.62 1171.53 1343.51 1172.38 1338.37 1172.2Z" fill="white"/>
<path d="M1829.68 1333.18H1211.5C1201.61 1332.82 1192.24 1328.64 1185.37 1321.52C1178.5 1314.4 1174.66 1304.88 1174.66 1294.99C1174.66 1285.09 1178.5 1275.58 1185.37 1268.46C1192.24 1261.33 1201.61 1257.15 1211.5 1256.8H1829.68C1834.81 1256.61 1839.93 1257.46 1844.72 1259.3C1849.51 1261.14 1853.89 1263.92 1857.59 1267.48C1861.28 1271.05 1864.22 1275.32 1866.23 1280.05C1868.23 1284.77 1869.27 1289.85 1869.27 1294.99C1869.27 1300.12 1868.23 1305.2 1866.23 1309.93C1864.22 1314.65 1861.28 1318.93 1857.59 1322.49C1853.89 1326.06 1849.51 1328.84 1844.72 1330.68C1839.93 1332.51 1834.81 1333.36 1829.68 1333.18Z" fill="white"/>
<path d="M1829.68 1494.11H1543.31C1533.42 1493.75 1524.05 1489.57 1517.18 1482.45C1510.31 1475.33 1506.47 1465.81 1506.47 1455.92C1506.47 1446.02 1510.31 1436.51 1517.18 1429.39C1524.05 1422.26 1533.42 1418.08 1543.31 1417.73H1829.68C1834.81 1417.54 1839.92 1418.39 1844.72 1420.23C1849.51 1422.06 1853.89 1424.85 1857.59 1428.41C1861.28 1431.98 1864.22 1436.25 1866.23 1440.98C1868.23 1445.7 1869.27 1450.78 1869.27 1455.92C1869.27 1461.05 1868.23 1466.13 1866.23 1470.86C1864.22 1475.58 1861.28 1479.86 1857.59 1483.42C1853.89 1486.99 1849.51 1489.77 1844.72 1491.61C1839.92 1493.44 1834.81 1494.29 1829.68 1494.11Z" fill="white"/>
<path opacity="0.1" d="M1191.6 940.531C1191.6 940.531 1136.85 1236.55 1136.85 1361.59C1136.85 1489.85 1182.1 1658.11 1182.1 1658.11H1037.5L1027.95 1495.69C1018.95 1343.8 1033.98 1191.44 1072.5 1044.24L1099.63 940.283L1191.6 940.531Z" fill="black"/>
<path d="M1116.21 1788.2C1116.21 1794.04 1035.03 1798.79 934.887 1798.79C834.746 1798.79 753.563 1793.84 753.563 1788.2C753.563 1782.55 834.746 1777.6 934.887 1777.6C1035.03 1777.6 1116.21 1782.36 1116.21 1788.2Z" fill="#E6E6E6"/>
<path d="M1054.04 558.032C1038.69 560.458 1024.34 561.695 1009.49 562.982C994.636 564.269 979.785 564.22 964.935 564.121C934.698 564.117 904.553 560.797 875.04 554.22C865.663 551.664 856.893 547.254 849.25 541.251C842.822 536.306 836.767 530.896 831.132 525.064C820.733 514.103 811.138 502.407 802.421 490.066C785.351 466.188 770.142 441.034 756.929 414.824L775.492 403.686C783.809 414.923 792.372 426.358 801.184 437.298C809.995 448.237 818.757 459.227 828.063 469.573C836.974 479.792 846.496 489.462 856.576 498.531C861.231 502.712 866.195 506.534 871.426 509.966C875.23 512.658 879.49 514.637 884 515.807C897.209 518.023 910.528 519.527 923.898 520.312C937.511 520.906 951.223 521.252 965.034 521.054C978.845 520.856 992.705 520.114 1006.52 519.124C1020.33 518.134 1034.44 516.698 1047.45 515.114L1054.04 558.032Z" fill="#FF8B7B"/>
<path d="M1098.59 517.837C1060.92 495.016 1009.83 511.599 1009.83 511.599L1035.67 600.702C1035.67 600.702 1076.46 589.218 1092.45 571.843C1109.18 553.874 1121.31 531.548 1098.59 517.837Z" fill="#263238"/>
<path d="M778.66 412.942L787.769 382.251L744.653 387.598C747.458 399.782 752.805 411.236 760.345 421.209L778.66 412.942Z" fill="#FF8B7B"/>
<path d="M784.65 346.462L748.761 352.897L744.653 387.598L787.769 382.252L784.65 346.462Z" fill="#FF8B7B"/>
<path d="M1274.47 236.37C1312.58 237.162 1301.89 268.992 1301.89 268.992C1301.89 268.992 1343.42 242.756 1356.64 273.398C1369.86 304.039 1340.06 313.741 1322.63 318.345C1333.57 324.632 1334.17 345.026 1318.82 351.709C1303.48 358.392 1277.79 340.027 1258.38 340.274L1239.27 317.652C1265.21 300.822 1236.3 235.578 1274.47 236.37Z" fill="#263238"/>
<path d="M1268.53 356.016C1285.16 358.936 1297.24 356.857 1293.97 338.492C1291.89 328.296 1287.27 318.79 1280.54 310.855C1273.81 302.92 1265.18 296.813 1255.46 293.099C1234.47 285.377 1229.77 320.028 1229.77 320.028L1268.53 356.016Z" fill="#FF725E"/>
<path d="M782.125 1638.85L739.653 1633.95L748.118 1535.34L790.59 1540.19L782.125 1638.85Z" fill="#FF8B7B"/>
<path d="M1063.44 1754.44L1020.77 1752.51L1011.57 1653.01L1054.29 1654.99L1063.44 1754.44Z" fill="#FF8B7B"/>
<path d="M1019.14 1739.59H1067.16C1067.98 1739.58 1068.78 1739.87 1069.41 1740.41C1070.04 1740.94 1070.45 1741.69 1070.57 1742.51L1076.02 1780.52C1076.12 1781.48 1076.02 1782.45 1075.73 1783.37C1075.43 1784.28 1074.94 1785.13 1074.3 1785.84C1073.65 1786.56 1072.86 1787.13 1071.98 1787.52C1071.1 1787.91 1070.15 1788.1 1069.19 1788.1C1052.45 1787.8 1044.43 1786.86 1023.25 1786.86C1010.28 1786.86 991.27 1788.2 973.35 1788.2C955.431 1788.2 954.49 1770.48 961.916 1768.84C995.428 1761.66 1000.72 1751.71 1012.01 1742.26C1013.99 1740.55 1016.52 1739.6 1019.14 1739.59Z" fill="#263238"/>
<path d="M738.218 1618.41L785.888 1612.76C786.715 1612.65 787.554 1612.85 788.248 1613.31C788.941 1613.78 789.44 1614.48 789.65 1615.29L799.55 1652.36C799.757 1653.3 799.765 1654.28 799.572 1655.22C799.379 1656.17 798.99 1657.06 798.43 1657.84C797.87 1658.63 797.151 1659.28 796.321 1659.77C795.491 1660.26 794.567 1660.57 793.61 1660.68C776.977 1662.36 768.859 1662.36 747.87 1664.84C735 1666.37 708.269 1670.88 690.647 1672.96C673.024 1675.04 669.806 1657.56 677.034 1655.09C709.457 1644 721.338 1632.61 731.485 1621.87C733.261 1619.97 735.64 1618.75 738.218 1618.41Z" fill="#263238"/>
<path d="M748.167 1535.34L743.762 1586.18L786.234 1591.08L790.64 1540.24L748.167 1535.34Z" fill="#EA7063"/>
<path d="M1054.29 1654.99L1011.57 1653.06L1016.32 1704.34L1059.04 1706.27L1054.29 1654.99Z" fill="#EA7063"/>
<path d="M1057.21 506.501C1057.21 506.501 1035.67 507.838 1006.52 760.197L1173.49 807.52C1189.97 738.763 1201.75 696.835 1273.78 566.596C1251.77 555.056 1228.96 545.129 1205.51 536.895C1180.78 527.944 1155.43 520.765 1129.68 515.411C1096.26 509.422 1057.21 506.501 1057.21 506.501Z" fill="#263238"/>
<path d="M1222.2 449.673C1210.51 472.691 1193.04 516.055 1205.51 537.142C1205.51 537.142 1191.8 560.012 1146.51 547.043C1096.66 532.935 1129.68 515.559 1129.68 515.559C1158.73 516.797 1163.73 496.402 1164.33 475.958L1222.2 449.673Z" fill="#FF8B7B"/>
<path d="M1083 508.976C1096.66 510.461 1113.84 512.688 1129.68 515.658C1155.44 520.999 1180.78 528.179 1205.51 537.142C1219.72 542.092 1233.48 547.537 1244.82 552.636C1242.49 560.903 1226.11 603.92 1128.64 579.169C1037.95 555.804 1072.65 517.391 1083 508.976Z" fill="#FF8B7B"/>
<path d="M1198.63 460.365L1164.43 476.057C1164.34 480.81 1163.85 485.547 1162.94 490.215C1173.73 491.65 1192.05 486.799 1196.26 476.206C1197.97 471.105 1198.77 465.744 1198.63 460.365Z" fill="#EA7063"/>
<path d="M1243.93 395.469C1233.68 436.604 1230.26 454.277 1205.31 471.751C1167.79 498.085 1119.43 476.701 1117.15 433.189C1115.07 394.132 1132 333.394 1175.91 324.285C1185.56 322.237 1195.57 322.69 1205 325.601C1214.42 328.511 1222.95 333.783 1229.76 340.915C1236.58 348.047 1241.46 356.803 1243.94 366.351C1246.41 375.899 1246.41 385.922 1243.93 395.469Z" fill="#FF8B7B"/>
<path d="M1230.56 435.169C1218.14 428.733 1208.19 410.418 1226.11 393.389C1226.11 393.389 1201.35 379.281 1213.78 359.827C1226.2 340.373 1275.85 324.186 1283.63 350.323C1291.4 376.46 1267.24 387.202 1267.24 387.202C1267.24 387.202 1287.04 417.497 1251.45 427.496C1251.45 427.496 1248.38 471.206 1222.84 451.752L1230.56 435.169Z" fill="#263238"/>
<path d="M1243.48 434.228C1241.12 442.058 1235.79 448.651 1228.63 452.593C1219.03 457.543 1211.9 449.673 1212.59 439.426C1213.23 430.169 1219.03 416.358 1229.57 415.517C1231.88 415.373 1234.19 415.808 1236.29 416.783C1238.39 417.758 1240.22 419.242 1241.6 421.101C1242.98 422.96 1243.88 425.134 1244.2 427.426C1244.53 429.718 1244.28 432.056 1243.48 434.228Z" fill="#FF8B7B"/>
<path d="M1006.52 760.196C1006.52 760.196 812.569 988.943 779.749 1115.07C745.593 1246.25 730.248 1570.49 730.248 1570.49L796.976 1579.1C796.976 1579.1 841.527 1282.44 897.613 1161.56C957.312 1032.85 1129.03 794.946 1129.03 794.946L1006.52 760.196Z" fill="#FF725E"/>
<path d="M805.886 1580.19L720.991 1569.1L719.506 1545.84L812.916 1564.8L805.886 1580.19Z" fill="#FF725E"/>
<path opacity="0.3" d="M805.886 1580.19L720.991 1569.1L719.506 1545.84L812.916 1564.8L805.886 1580.19Z" fill="black"/>
<path opacity="0.2" d="M1003.2 864.199C987.332 920.394 975.389 977.624 967.459 1035.47C985.181 1006.76 1003.84 977.706 1021.91 950.184C1028.49 935.63 1035.23 921.225 1041.71 907.167C1041.71 907.167 1041.71 906.87 1041.71 906.672L1003.2 864.199Z" fill="black"/>
<path d="M1050.62 772.671C1050.62 772.671 994.487 1061.61 974.192 1227.64C957.757 1361.79 1009.49 1687.16 1009.49 1687.16L1065.13 1690.58C1065.13 1690.58 1053.39 1400.01 1079.23 1270.06C1144.68 941.323 1205.86 897.217 1173.29 807.52L1050.62 772.671Z" fill="#FF725E"/>
<path d="M1072.01 1690.98L999.982 1686.57L996.616 1666.08L1074.63 1674.19L1072.01 1690.98Z" fill="#FF725E"/>
<path opacity="0.3" d="M1072.01 1690.98L999.982 1686.57L996.616 1666.08L1074.63 1674.19L1072.01 1690.98Z" fill="black"/>
<path d="M1178.78 798.412L1182.05 815.49C1182.3 816.826 1180.61 817.618 1178.68 817.074L1003.6 767.572C1002.06 767.176 1001.02 766.087 1001.22 765.097L1003.94 749.751C1003.94 748.662 1005.67 748.167 1007.31 748.613L1176.41 796.531C1176.92 796.636 1177.4 796.862 1177.82 797.188C1178.23 797.515 1178.56 797.934 1178.78 798.412Z" fill="#FF725E"/>
<path opacity="0.4" d="M1178.78 798.412L1182.05 815.49C1182.3 816.826 1180.61 817.618 1178.68 817.074L1003.6 767.572C1002.06 767.176 1001.02 766.087 1001.22 765.097L1003.94 749.751C1003.94 748.662 1005.67 748.167 1007.31 748.613L1176.41 796.531C1176.92 796.636 1177.4 796.862 1177.82 797.188C1178.23 797.515 1178.56 797.934 1178.78 798.412Z" fill="black"/>
<path d="M1150.71 810.886L1155.22 812.173C1156.11 812.421 1156.95 812.173 1157.05 811.579L1160.42 791.779C1160.42 791.185 1159.87 790.492 1158.98 790.244L1154.43 788.957C1153.54 788.71 1152.74 788.957 1152.65 789.551L1149.23 809.352C1149.13 809.946 1149.82 810.639 1150.71 810.886Z" fill="#FF725E"/>
<path d="M1015.82 772.671L1020.38 773.958C1021.27 774.206 1022.11 773.958 1022.21 773.364L1025.57 753.563C1025.57 753.019 1025.03 752.326 1024.09 752.078L1019.58 750.791C1018.69 750.494 1017.85 750.791 1017.75 751.385L1014.39 771.186C1014.29 771.73 1014.78 772.226 1015.82 772.671Z" fill="#FF725E"/>
<path d="M1083.29 792.026L1087.8 793.313C1088.69 793.313 1089.53 793.313 1089.63 792.719L1093 772.919C1093 772.325 1092.45 771.632 1091.56 771.384L1087.01 770.097C1086.12 769.8 1085.27 770.097 1085.17 770.691L1081.81 790.492C1081.71 790.838 1082.35 791.531 1083.29 792.026Z" fill="#FF725E"/>
<path d="M1178.63 395.518C1177.99 398.884 1175.71 401.31 1173.68 400.914C1171.65 400.518 1170.17 397.399 1170.81 394.033C1171.46 390.667 1173.73 388.192 1175.76 388.637C1177.79 389.083 1179.23 392.102 1178.63 395.518Z" fill="#263238"/>
<path d="M1140.32 388.439C1139.68 391.855 1137.4 394.281 1135.37 393.835C1133.34 393.39 1131.85 390.37 1132.5 387.004C1133.14 383.638 1135.42 381.163 1137.45 381.559C1139.48 381.955 1140.91 385.073 1140.32 388.439Z" fill="#263238"/>
<path d="M1138.54 381.955L1130.86 378.094C1130.86 378.094 1133.59 385.222 1138.54 381.955Z" fill="#263238"/>
<path d="M1149.38 396.013C1144.92 403.181 1139.51 409.71 1133.29 415.418C1134.8 416.965 1136.62 418.165 1138.64 418.935C1140.66 419.704 1142.82 420.024 1144.97 419.873L1149.38 396.013Z" fill="#FF5652"/>
<path d="M1160.42 436.159C1158.41 436.145 1156.4 435.947 1154.43 435.565C1154.17 435.517 1153.95 435.37 1153.8 435.158C1153.65 434.945 1153.59 434.682 1153.64 434.426C1153.68 434.159 1153.84 433.92 1154.06 433.763C1154.28 433.606 1154.55 433.542 1154.82 433.585C1159.02 434.448 1163.37 434.31 1167.5 433.184C1171.64 432.057 1175.45 429.973 1178.63 427.1C1178.83 426.938 1179.08 426.854 1179.34 426.865C1179.59 426.875 1179.83 426.979 1180.02 427.156C1180.2 427.333 1180.31 427.572 1180.33 427.826C1180.35 428.081 1180.27 428.333 1180.12 428.536C1174.77 433.514 1167.72 436.244 1160.42 436.159Z" fill="#263238"/>
<path d="M1192.99 385.271C1192.62 385.274 1192.26 385.173 1191.94 384.981C1191.63 384.788 1191.37 384.512 1191.21 384.182C1190.13 381.88 1188.52 379.865 1186.52 378.3C1184.51 376.734 1182.17 375.663 1179.67 375.173C1179.39 375.173 1179.11 375.113 1178.84 374.996C1178.58 374.88 1178.35 374.71 1178.16 374.497C1177.97 374.284 1177.83 374.034 1177.74 373.762C1177.65 373.49 1177.62 373.203 1177.66 372.919C1177.69 372.636 1177.78 372.362 1177.92 372.116C1178.07 371.869 1178.26 371.657 1178.49 371.491C1178.73 371.325 1178.99 371.21 1179.27 371.154C1179.55 371.097 1179.84 371.101 1180.12 371.163C1183.31 371.694 1186.33 372.989 1188.92 374.936C1191.5 376.884 1193.58 379.428 1194.97 382.351C1195.21 382.83 1195.25 383.386 1195.09 383.896C1194.92 384.406 1194.56 384.83 1194.08 385.073C1193.74 385.234 1193.36 385.302 1192.99 385.271Z" fill="#263238"/>
<path d="M1126.51 367.649C1126.25 367.648 1125.99 367.595 1125.75 367.493C1125.52 367.391 1125.3 367.242 1125.12 367.055C1124.93 366.87 1124.77 366.647 1124.67 366.4C1124.56 366.154 1124.51 365.888 1124.51 365.619C1124.51 365.351 1124.56 365.085 1124.67 364.838C1124.77 364.591 1124.93 364.369 1125.12 364.184C1127.31 361.832 1130.03 360.036 1133.05 358.943C1136.07 357.85 1139.31 357.491 1142.5 357.897C1143.01 358.016 1143.47 358.328 1143.76 358.77C1144.06 359.212 1144.17 359.75 1144.08 360.273C1144.03 360.536 1143.93 360.786 1143.79 361.009C1143.64 361.232 1143.45 361.423 1143.23 361.571C1143.01 361.719 1142.76 361.821 1142.5 361.87C1142.23 361.919 1141.97 361.915 1141.71 361.857C1139.2 361.553 1136.66 361.842 1134.28 362.702C1131.91 363.562 1129.77 364.968 1128.04 366.807C1127.87 367.053 1127.64 367.256 1127.37 367.402C1127.11 367.548 1126.81 367.632 1126.51 367.649Z" fill="#263238"/>
<path d="M1278.97 613.474C1282.34 628.621 1284.47 642.878 1286.45 657.629C1288.43 672.381 1289.47 687.33 1290.31 701.884C1292.06 732.075 1290.52 762.367 1285.71 792.224C1283.74 801.745 1279.86 810.77 1274.32 818.757C1269.84 825.463 1264.88 831.832 1259.47 837.815C1249.17 848.907 1238.1 859.262 1226.35 868.803C1203.52 887.296 1179.29 903.995 1153.88 918.75L1141.66 900.93C1152.35 891.92 1163.24 882.663 1173.63 873.258C1184.03 863.853 1194.47 854.349 1204.18 844.448C1213.86 834.928 1222.95 824.828 1231.4 814.203C1235.28 809.322 1238.79 804.16 1241.9 798.758C1244.32 794.789 1246 790.411 1246.85 785.838C1248.28 772.521 1248.97 759.135 1248.93 745.742C1248.93 732.08 1248.18 718.368 1247.14 704.606C1246.1 690.845 1244.52 677.083 1242.69 663.322C1240.86 649.56 1238.58 635.601 1236.2 622.73L1278.97 613.474Z" fill="#FF8B7B"/>
<path d="M1273.78 566.596C1289.02 576.496 1292.83 639.709 1292.83 639.709L1214.77 667.727C1214.77 667.727 1204.87 612.929 1217.89 593.475C1231.6 572.833 1256.3 555.359 1273.78 566.596Z" fill="#263238"/>
<path d="M1004.49 1747.06C1001.6 1747.32 998.72 1746.53 996.369 1744.83C995.655 1744.16 995.125 1743.32 994.83 1742.38C994.536 1741.44 994.486 1740.45 994.685 1739.49C994.737 1738.87 994.952 1738.28 995.309 1737.77C995.666 1737.27 996.151 1736.87 996.715 1736.62C1001.67 1734.34 1014.63 1742.75 1016.12 1743.69C1016.28 1743.81 1016.41 1743.97 1016.49 1744.15C1016.57 1744.34 1016.59 1744.54 1016.57 1744.73C1016.52 1744.93 1016.42 1745.1 1016.28 1745.24C1016.14 1745.38 1015.96 1745.48 1015.77 1745.53C1012.08 1746.46 1008.29 1746.98 1004.49 1747.06ZM998.844 1738.25C998.419 1738.16 997.981 1738.16 997.557 1738.25C997.305 1738.36 997.091 1738.54 996.941 1738.77C996.791 1738.99 996.713 1739.26 996.715 1739.54C996.555 1740.17 996.562 1740.84 996.735 1741.47C996.909 1742.11 997.243 1742.68 997.705 1743.15C999.883 1745.13 1005.48 1745.38 1012.95 1743.89C1008.68 1741.08 1003.88 1739.16 998.844 1738.25Z" fill="#FF725E"/>
<path d="M1015.58 1745.58C1015.41 1745.63 1015.24 1745.63 1015.08 1745.58C1010.97 1743.25 1003.2 1734.04 1004.19 1729.24C1004.33 1728.44 1004.75 1727.72 1005.38 1727.2C1006 1726.68 1006.79 1726.41 1007.61 1726.42C1008.37 1726.32 1009.15 1726.38 1009.88 1726.61C1010.62 1726.84 1011.29 1727.23 1011.86 1727.76C1016.52 1731.86 1016.81 1744.19 1016.81 1744.68C1016.81 1744.86 1016.77 1745.04 1016.68 1745.2C1016.6 1745.35 1016.47 1745.48 1016.32 1745.58C1016.2 1745.63 1016.07 1745.65 1015.95 1745.65C1015.82 1745.65 1015.69 1745.63 1015.58 1745.58ZM1008.3 1728.25H1007.8C1006.52 1728.25 1006.27 1728.94 1006.17 1729.44C1005.58 1732.36 1010.43 1739.34 1014.49 1742.56C1014.59 1737.77 1013.21 1733.06 1010.53 1729.09C1009.92 1728.54 1009.12 1728.24 1008.3 1728.25Z" fill="#FF725E"/>
<path d="M719.407 1627.96C717.018 1628.11 714.638 1627.54 712.576 1626.33C711.831 1625.8 711.225 1625.11 710.811 1624.29C710.397 1623.48 710.187 1622.58 710.2 1621.67C710.162 1621.11 710.27 1620.54 710.513 1620.03C710.755 1619.52 711.125 1619.08 711.586 1618.75C716.536 1615.29 734.356 1621.92 736.336 1622.71C736.536 1622.79 736.706 1622.92 736.822 1623.1C736.938 1623.28 736.993 1623.49 736.98 1623.7C736.979 1623.91 736.912 1624.12 736.787 1624.29C736.662 1624.46 736.487 1624.58 736.287 1624.64C730.845 1626.54 725.162 1627.65 719.407 1627.96ZM715.843 1619.79C714.763 1619.71 713.682 1619.93 712.724 1620.44C712.545 1620.56 712.403 1620.73 712.316 1620.94C712.229 1621.14 712.199 1621.36 712.229 1621.57C712.207 1622.18 712.335 1622.78 712.603 1623.33C712.871 1623.87 713.27 1624.34 713.764 1624.69C716.585 1626.67 723.664 1626.28 732.822 1623.6C727.367 1621.55 721.652 1620.27 715.843 1619.79Z" fill="#FF725E"/>
<path d="M736.04 1624.69H735.743C730.396 1623.01 719.308 1615.04 719.555 1610.14C719.555 1608.95 720.199 1607.47 722.971 1606.82C723.96 1606.61 724.982 1606.59 725.977 1606.78C726.972 1606.97 727.919 1607.35 728.763 1607.91C734.604 1611.72 736.931 1623.01 737.03 1623.5C737.062 1623.67 737.052 1623.85 737 1624.01C736.948 1624.18 736.856 1624.33 736.733 1624.45C736.542 1624.61 736.294 1624.7 736.04 1624.69ZM724.654 1608.6C724.243 1608.56 723.828 1608.56 723.417 1608.6C721.585 1609 721.585 1609.74 721.536 1609.99C721.536 1612.96 729.06 1619.35 734.604 1621.87C733.625 1617.09 731.186 1612.73 727.624 1609.4C726.709 1608.93 725.68 1608.72 724.654 1608.8V1608.6Z" fill="#FF725E"/>
<path opacity="0.6" d="M918.354 373.638C860.75 360.236 800.603 362.559 744.204 380.366C687.806 398.172 637.228 430.807 597.763 474.856C558.298 518.906 531.395 572.751 519.868 630.759C508.341 688.768 512.615 748.808 532.241 804.599L436.06 906.969L581.545 895.682C613.703 937.788 655.523 971.535 703.472 994.073C751.421 1016.61 804.09 1027.28 857.029 1025.17C909.969 1023.06 961.624 1008.25 1007.63 981.971C1053.64 955.695 1092.64 918.732 1121.36 874.204C1150.07 829.677 1167.64 778.893 1172.59 726.143C1177.54 673.393 1169.72 620.227 1149.79 571.136C1129.86 522.045 1098.41 478.471 1058.09 444.096C1017.78 409.721 969.78 385.555 918.156 373.638H918.354Z" fill="#FF725E"/>
<path opacity="0.1" d="M918.354 373.638C860.75 360.236 800.603 362.559 744.204 380.366C687.806 398.172 637.228 430.807 597.763 474.856C558.298 518.906 531.395 572.751 519.868 630.759C508.341 688.768 512.615 748.808 532.241 804.599L436.06 906.969L581.545 895.682C613.703 937.788 655.523 971.535 703.472 994.073C751.421 1016.61 804.09 1027.28 857.029 1025.17C909.969 1023.06 961.624 1008.25 1007.63 981.971C1053.64 955.695 1092.64 918.732 1121.36 874.204C1150.07 829.677 1167.64 778.893 1172.59 726.143C1177.54 673.393 1169.72 620.227 1149.79 571.136C1129.86 522.045 1098.41 478.471 1058.09 444.096C1017.78 409.721 969.78 385.555 918.156 373.638H918.354Z" fill="black"/>
<path d="M844.201 1009.39C795.881 1009.38 748.212 998.251 704.881 976.869C661.55 955.487 623.72 924.422 594.316 886.079L589.069 878.951L478.087 887.564C477.948 887.557 477.814 887.517 477.693 887.448C477.573 887.379 477.47 887.284 477.394 887.168C477.324 887.048 477.287 886.911 477.287 886.772C477.287 886.633 477.324 886.497 477.394 886.376L550.705 808.51L547.488 799.253C530.853 751.919 525.804 701.287 532.763 651.599C539.723 601.912 558.488 554.616 587.486 513.672C616.485 472.729 654.873 439.331 699.435 416.276C743.996 393.221 793.434 381.18 843.607 381.163C890.891 381.141 937.57 391.791 980.165 412.321C1022.76 432.851 1060.17 462.73 1089.61 499.731C1119.05 536.732 1139.76 579.901 1150.19 626.019C1160.63 672.138 1160.52 720.017 1149.87 766.087C1134.15 835.338 1095.3 897.167 1039.74 941.392C984.181 985.616 915.214 1009.6 844.201 1009.39ZM589.366 877.515C589.474 877.519 589.579 877.548 589.674 877.6C589.768 877.651 589.849 877.724 589.911 877.812L595.455 885.089C624.694 923.302 662.342 954.267 705.48 975.583C748.617 996.898 796.084 1007.99 844.201 1008C920.951 1007.91 994.986 979.591 1052.21 928.442C1109.43 877.294 1145.85 806.887 1154.52 730.628C1163.19 654.369 1143.51 577.584 1099.23 514.895C1054.95 452.205 989.164 407.989 914.394 390.667C891.182 385.287 867.434 382.564 843.607 382.549C793.669 382.594 744.469 394.602 700.125 417.568C655.782 440.534 617.586 473.79 588.735 514.55C559.885 555.31 541.219 602.389 534.301 651.845C527.383 701.302 532.414 751.695 548.973 798.808L552.339 808.461C552.412 808.562 552.451 808.683 552.451 808.807C552.451 808.931 552.412 809.053 552.339 809.154L479.819 886.079L589.317 877.565L589.366 877.515Z" fill="white"/>
<path d="M958.45 639.066C959.224 637.275 959.381 635.277 958.898 633.387C958.414 631.497 957.316 629.821 955.777 628.621C938.694 616.175 919.206 607.425 898.553 602.93C863.18 594.776 826.017 600.991 795.223 620.212C764.429 639.433 742.52 670.088 734.307 705.448C722.921 754.603 749.9 787.967 782.422 795.491C795.862 798.881 809.911 799.057 823.431 796.004C836.951 792.951 849.561 786.755 860.239 777.918C860.512 788.467 864.381 798.606 871.205 806.655C878.029 814.703 887.399 820.178 897.761 822.172C948.599 833.954 1010.72 799.847 1031.07 711.932C1053 617.285 1001.71 535.756 906.424 513.926C791.976 487.443 684.657 558.081 656.837 678.271C633.67 778.463 687.577 867.516 784.997 890.089C823.657 899.048 855.388 899.197 887.861 890.633C889.916 890.086 891.703 888.81 892.887 887.043C894.071 885.276 894.572 883.139 894.296 881.03L891.128 856.279C890.955 855.029 890.516 853.83 889.842 852.763C889.167 851.695 888.272 850.785 887.217 850.091C886.169 849.385 884.977 848.92 883.727 848.732C882.476 848.544 881.2 848.636 879.99 849.002C854.001 855.594 826.777 855.594 800.788 849.002C724.951 831.429 686.389 765.939 704.903 685.944C727.179 589.564 806.233 534.172 893.009 554.22C966.37 571.199 1001.07 628.473 983.597 704.359C975.924 737.475 960.133 763.414 940.234 775.591C932.926 780.674 923.9 782.65 915.136 781.086C913.823 780.873 912.582 780.342 911.521 779.539C910.46 778.737 909.611 777.688 909.048 776.483C906.919 772.126 905.384 760.295 918.948 730.446L958.45 639.066ZM881.822 646.442C887.358 647.707 892.762 649.497 897.959 651.788L876.376 701.29C864.199 729.901 830.588 758.711 805.589 752.92C782.769 747.673 783.957 727.129 786.68 715.398C797.471 668.569 841.082 637.036 881.822 646.442Z" fill="white"/>
<path d="M1150.91 897.168L1113.39 875.882L1121.36 918.602C1121.36 918.602 1147.4 927.215 1160.27 914.939L1150.91 897.168Z" fill="#FF8B7B"/>
<path d="M1077.85 881.178L1086.46 916.572L1121.36 918.602L1113.39 875.882L1077.85 881.178Z" fill="#FF8B7B"/>
<path d="M1176.7 388.984L1168.98 385.123C1168.98 385.123 1172 392.251 1176.7 388.984Z" fill="#263238"/>
<path d="M1229.77 369.431C1208.58 368.094 1193.04 358.788 1190.96 346.561C1190.96 346.561 1142.35 366.757 1122.7 336.661C1122.7 336.661 1100.52 340.324 1095.03 324.879C1089.53 309.435 1112.6 305.078 1123.49 312.009C1123.49 312.009 1089.73 282.308 1124.38 274.041C1159.03 265.774 1166.46 293.842 1166.46 293.842C1166.46 293.842 1180.12 252.854 1211.01 271.071C1241.9 289.287 1222.69 306.91 1222.69 306.91C1222.69 306.91 1296.05 312.603 1268.73 341.561C1241.4 370.52 1229.77 369.431 1229.77 369.431Z" fill="#263238"/>
<path d="M1203.24 511.698C1207.39 512.094 1205.56 526.549 1203.68 527.539C1199.37 529.866 1147.5 519.223 1149.23 511.203C1151.02 507.351 1153.5 503.861 1156.56 500.907C1158.83 499.224 1166.75 508.679 1203.24 511.698Z" fill="#263238"/>
<path d="M1474.16 625.057C1453.16 624.991 1432.93 632.903 1417.54 647.19C1402.16 661.478 1392.77 681.075 1391.29 702.018C1389.81 722.961 1396.33 743.686 1409.55 760.001C1422.76 776.315 1441.68 787.001 1462.48 789.897C1462.89 810.812 1455.56 831.141 1441.88 846.973C1441.88 846.973 1557.02 818.311 1557.02 707.923C1557.02 685.945 1548.29 664.868 1532.75 649.328C1517.21 633.788 1496.14 625.057 1474.16 625.057Z" fill="#FF725E"/>
<path d="M1660.63 625.057C1639.64 624.991 1619.4 632.903 1604.01 647.19C1588.63 661.478 1579.25 681.075 1577.76 702.018C1576.28 722.961 1582.8 743.686 1596.02 760.001C1609.23 776.315 1628.15 787.002 1648.95 789.898C1649.43 810.78 1642.19 831.105 1628.6 846.973C1628.6 846.973 1743.74 818.311 1743.74 707.923C1743.75 697.018 1741.6 686.219 1737.43 676.147C1733.25 666.074 1727.12 656.925 1719.4 649.226C1711.68 641.526 1702.51 635.428 1692.43 631.28C1682.34 627.133 1671.54 625.018 1660.63 625.057Z" fill="#FF725E"/>
</svg>
