<svg width="1688" height="670" viewBox="0 0 1688 670" fill="none" xmlns="http://www.w3.org/2000/svg">
<path d="M1535.71 274.425C1535.71 274.425 1536.01 283.449 1536.49 287.13C1536.97 290.811 1538.23 293.053 1538.23 293.053C1538.48 295.314 1537.56 297.526 1537.56 297.526C1537.56 297.526 1523.91 330.609 1521.41 334.454C1520.74 335.472 1519.68 336.447 1518.49 336.599C1516.25 336.879 1511.07 335.478 1508.23 334.692C1498.01 331.87 1484.91 327.684 1480.85 326.27C1478.79 325.557 1476.68 323.753 1475.89 322.65C1472.32 317.672 1474.02 311.359 1474.02 311.359L1535.71 274.425Z" fill="white"/>
<path d="M1517.85 338.75C1515.36 338.75 1511.51 337.793 1507.67 336.733C1497.58 333.948 1484.4 329.744 1480.16 328.275C1477.71 327.428 1475.25 325.38 1474.18 323.894C1470.07 318.172 1471.91 311.115 1471.99 310.823C1472.06 310.554 1472.19 310.303 1472.36 310.083C1472.53 309.863 1472.74 309.678 1472.98 309.54C1473.22 309.401 1473.48 309.311 1473.76 309.275C1474.03 309.239 1474.31 309.258 1474.58 309.33C1474.85 309.402 1475.1 309.526 1475.32 309.695C1475.54 309.864 1475.73 310.075 1475.87 310.315C1476 310.556 1476.09 310.821 1476.13 311.096C1476.17 311.372 1476.15 311.651 1476.08 311.919C1476.05 312.023 1474.72 317.385 1477.62 321.432C1478.21 322.26 1479.99 323.747 1481.55 324.284C1485.74 325.74 1498.8 329.902 1508.8 332.663C1510.67 333.174 1516.33 334.74 1518.23 334.509C1518.57 334.466 1519.16 334.04 1519.65 333.308C1521.4 330.609 1530.16 309.957 1535.61 296.728C1535.62 296.715 1536.22 295.198 1536.15 293.644C1535.72 292.736 1534.8 290.518 1534.4 287.416C1533.91 283.675 1533.61 274.875 1533.61 274.504C1533.6 274.226 1533.64 273.95 1533.74 273.69C1533.84 273.431 1533.99 273.193 1534.18 272.99C1534.36 272.787 1534.59 272.624 1534.85 272.51C1535.1 272.395 1535.37 272.331 1535.65 272.322C1536.83 272.243 1537.79 273.2 1537.83 274.364C1537.84 274.455 1538.13 283.328 1538.59 286.868C1539.01 290.043 1540.07 292.023 1540.08 292.042C1540.21 292.285 1540.3 292.56 1540.33 292.834C1540.64 295.552 1539.64 298.068 1539.52 298.349C1538.12 301.755 1525.72 331.73 1523.19 335.624C1522.05 337.379 1520.43 338.5 1518.76 338.714C1518.48 338.732 1518.18 338.75 1517.85 338.75Z" fill="#2F2F2F"/>
<path d="M1518.49 338.013C1518.04 338.013 1517.6 337.794 1517.32 337.391C1512.67 330.511 1514.94 320.091 1515.03 319.652C1515.12 319.287 1515.34 318.97 1515.66 318.77C1515.97 318.57 1516.36 318.504 1516.72 318.586C1517.48 318.757 1517.96 319.506 1517.79 320.268C1517.76 320.365 1515.69 329.945 1519.66 335.813C1520.09 336.459 1519.92 337.336 1519.28 337.769C1519.04 337.934 1518.76 338.013 1518.49 338.013V338.013Z" fill="#2F2F2F"/>
<path d="M1532.65 268.843C1529.17 267.563 1517.12 263.535 1507.71 261.914L1507.21 261.829C1505.76 261.573 1503.94 261.25 1501.95 261.25C1500.5 261.25 1499.2 261.414 1497.97 261.762C1496.5 262.17 1494.52 263.005 1493.41 264.662C1486.49 274.943 1472.65 309.122 1472.07 310.573C1471.87 311.048 1471.87 311.566 1472.02 312.023C1472.05 312.047 1472.05 312.072 1472.07 312.096C1473.11 313.028 1474.59 312.383 1475.74 312.09C1476.09 311.999 1476.47 311.938 1476.84 311.901C1477.06 311.846 1477.29 311.81 1477.57 311.81C1478.37 311.81 1479.35 312.029 1480.37 312.255C1480.76 312.34 1481.16 312.431 1481.55 312.51C1482.29 312.657 1485.75 313.839 1488.81 314.881C1490.96 315.612 1493.21 316.38 1495.06 316.983L1495.89 317.251C1501.75 319.159 1506.81 320.804 1508.21 321.194C1511.29 322.047 1513.31 322.425 1514.79 322.425C1515.31 322.425 1515.77 322.376 1516.18 322.279C1518.72 321.669 1520.1 319.531 1520.93 317.977C1521.08 317.678 1522.66 313.924 1531.64 292.261C1534.19 286.131 1536.22 281.213 1536.39 280.835C1536.79 279.909 1537.28 278.629 1537.59 277.289C1538.06 275.253 1538.35 273.864 1537.74 272.408C1536.98 270.653 1535.09 269.751 1532.65 268.843V268.843Z" fill="#ED6C30"/>
<path d="M1625.03 110.778L1634.17 119.797L1593.59 139.175C1593.59 139.175 1588.23 141.612 1585.67 137.712C1575.67 122.112 1625.03 110.778 1625.03 110.778Z" fill="#256382"/>
<path d="M1592.61 127.841C1592.61 127.841 1584.81 130.522 1586.28 135.762C1587.74 141.125 1593.95 137.834 1593.95 137.834L1632.47 119.919C1632.47 119.919 1630.27 114.191 1634.17 110.412L1592.61 127.841Z" fill="#D9E3E8"/>
<path d="M1599.07 74.0938L1636 110.047L1592.37 127.109L1564.34 83.4781L1599.07 74.0938Z" fill="#42ADE2"/>
<path d="M1600.17 82.2594L1607.24 89.8156L1580.79 99.3219L1574.57 89.6938L1600.17 82.2594Z" fill="white"/>
<path d="M1632.34 114.312L1606.63 124.794L1631.98 113.216L1632.34 114.312ZM1631.98 117.481L1604.56 128.816L1631.49 116.262L1631.98 117.481ZM1632.22 119.187L1597.24 134.422L1631.73 118.091L1632.22 119.187Z" fill="#94989B"/>
<path d="M1585.67 137.713C1581.4 128.816 1592.37 127.231 1592.37 127.231L1564.34 83.4782C1564.34 83.4782 1558 83.3563 1558 89.9376C1558 92.6188 1559.22 94.6907 1559.22 94.6907L1585.67 137.713" fill="#428BC1"/>
<path d="M133.031 183.778L142.172 192.797L101.588 212.175C101.588 212.175 96.225 214.612 93.6657 210.712C83.6719 195.112 133.031 183.778 133.031 183.778Z" fill="#547725"/>
<path d="M100.612 200.841C100.612 200.841 92.8124 203.522 94.2749 208.762C95.7374 214.125 101.953 210.834 101.953 210.834L140.466 192.919C140.466 192.919 138.272 187.191 142.172 183.412L100.612 200.841Z" fill="#D9E3E8"/>
<path d="M107.072 147.094L144 183.047L100.369 200.109L72.3375 156.478L107.072 147.094Z" fill="#83BF4F"/>
<path d="M108.169 155.259L115.237 162.816L88.7906 172.322L82.575 162.694L108.169 155.259Z" fill="white"/>
<path d="M140.344 187.312L114.628 197.794L139.978 186.216L140.344 187.312ZM139.978 190.481L112.556 201.816L139.491 189.262L139.978 190.481ZM140.222 192.187L105.244 207.422L139.734 191.091L140.222 192.187Z" fill="#94989B"/>
<path d="M93.6656 210.713C89.4 201.816 100.369 200.231 100.369 200.231L72.3375 156.478C72.3375 156.478 66 156.356 66 162.938C66 165.619 67.2188 167.691 67.2188 167.691L93.6656 210.713" fill="#699635"/>
<path d="M369.031 548.778L378.172 557.797L337.587 577.175C337.587 577.175 332.225 579.613 329.666 575.713C319.672 560.113 369.031 548.778 369.031 548.778Z" fill="#547725"/>
<path d="M336.613 565.841C336.613 565.841 328.813 568.522 330.275 573.762C331.738 579.125 337.953 575.834 337.953 575.834L376.466 557.919C376.466 557.919 374.272 552.191 378.172 548.412L336.613 565.841Z" fill="#D9E3E8"/>
<path d="M343.072 512.094L380 548.047L336.369 565.109L308.338 521.478L343.072 512.094Z" fill="white"/>
<path d="M344.169 520.259L351.238 527.816L324.791 537.322L318.575 527.694L344.169 520.259Z" fill="#B5B5B5"/>
<path d="M376.344 552.313L350.628 562.794L375.978 551.216L376.344 552.313ZM375.978 555.481L348.556 566.816L375.491 554.263L375.978 555.481ZM376.222 557.188L341.244 572.422L375.734 556.091L376.222 557.188Z" fill="#94989B"/>
<path d="M329.666 575.712C325.4 566.816 336.369 565.231 336.369 565.231L308.337 521.478C308.337 521.478 302 521.356 302 527.937C302 530.619 303.219 532.691 303.219 532.691L329.666 575.712" fill="#C2FF7C"/>
<g clip-path="url(#clip0_344_60)">
<path d="M293.909 122.384L302.806 131.647L263.684 151.269C263.684 151.269 258.566 153.828 256.128 149.806C246.378 133.963 293.909 122.384 293.909 122.384" fill="#256382"/>
<path d="M262.588 139.691C262.588 139.691 255.153 142.494 256.494 147.734C257.956 153.219 263.928 149.928 263.928 149.928L301.1 131.647C301.1 131.647 299.028 125.797 302.806 121.897L262.588 139.691" fill="#D9E3E8"/>
<path d="M268.925 84.8469L304.512 121.531L262.466 138.959L235.531 94.3532L268.925 84.8469Z" fill="#42ADE2"/>
<path d="M300.978 125.919L276.116 136.644L300.491 124.822L300.978 125.919ZM300.613 129.088L274.166 140.666L300.125 127.991L300.613 129.088ZM300.856 130.916L267.097 146.394L300.369 129.819L300.856 130.916Z" fill="#94989B"/>
<path d="M256.006 149.684C251.862 140.544 262.466 138.959 262.466 138.959L235.531 94.3532C235.531 94.3532 229.438 94.2313 229.438 100.934C229.438 103.738 230.656 105.809 230.656 105.809L256.006 149.684Z" fill="#428BC1"/>
<path d="M237.603 113.244L228.706 122.506L267.828 142.128C267.828 142.128 272.947 144.688 275.384 140.666C285.134 124.822 237.603 113.244 237.603 113.244" fill="#547725"/>
<path d="M268.803 130.55C268.803 130.55 276.238 133.353 274.897 138.594C273.434 144.078 267.584 140.787 267.584 140.787L230.413 122.506C230.413 122.506 232.484 116.656 228.706 112.756L268.803 130.55Z" fill="#D9E3E8"/>
<path d="M262.588 75.7063L227 112.391L269.047 129.819L295.981 85.2125L262.588 75.7063Z" fill="#83BF4F"/>
<path d="M230.9 115.681L255.275 127.503L230.412 116.778L230.9 115.681ZM231.387 118.85L257.225 131.525L230.778 119.947L231.387 118.85ZM231.144 120.678L264.294 137.253L230.534 121.775L231.144 120.678Z" fill="#94989B"/>
<path d="M275.506 140.544C279.65 131.403 269.047 129.819 269.047 129.819L295.981 85.2126C295.981 85.2126 302.075 85.0907 302.075 91.7938C302.075 94.5969 300.856 96.6688 300.856 96.6688L275.506 140.544Z" fill="#699635"/>
<path d="M296.103 105.688L303.538 113.488L270.509 129.941C270.509 129.941 266.122 132.013 264.05 128.722C256.006 115.438 296.103 105.688 296.103 105.688Z" fill="#962C2C"/>
<path d="M269.656 120.313C269.656 120.313 263.319 122.628 264.538 127.138C265.756 131.769 270.753 128.966 270.753 128.966L302.075 113.488C302.075 113.488 300.369 108.613 303.538 105.322L269.656 120.313Z" fill="#D9E3E8"/>
<path d="M275.019 74L305 104.956L269.534 119.703L246.744 82.0437L275.019 74Z" fill="#ED4C5C"/>
<path d="M275.872 81.0687L281.722 87.5281L260.15 95.6937L255.031 87.4062L275.872 81.0687Z" fill="white"/>
<path d="M302.075 108.734L281.113 117.631L301.588 107.637L302.075 108.734ZM301.831 111.416L279.406 121.044L301.344 110.319L301.831 111.416ZM302.075 112.878L273.556 125.919L301.466 111.781L302.075 112.878Z" fill="#94989B"/>
<path d="M264.172 128.722C260.759 121.044 269.656 119.703 269.656 119.703L246.744 82.0438C246.744 82.0438 241.503 81.9219 241.503 87.5282C241.503 89.8438 242.478 91.6719 242.478 91.6719L264.172 128.722Z" fill="#C94747"/>
</g>
<path d="M158.566 364.048C158.566 364.048 160.86 372.614 175.23 370.422L177.668 364.691L173.535 360.334L162.097 356.672L158.564 364.048" fill="#34484C"/>
<path d="M204.341 347.998C204.341 351.03 202.735 351.83 198.671 353.491L163.982 367.699C160.85 367.698 158.312 365.24 158.312 362.204V314.926C158.312 311.888 160.155 310.877 163.982 309.427L198.67 295.219C201.805 295.219 204.34 297.684 204.34 300.718V347.998" fill="#AD7029"/>
<path d="M161.464 367.119C161.464 367.119 174.465 370.736 175.229 370.423C175.983 370.113 174.743 364.957 174.743 364.957L170.041 360.045L165.658 359.848L164.889 360.907L161.464 367.119Z" fill="#34484C"/>
<path d="M197.857 298.494L159.372 314.174L161.177 324.22L166.903 324.778L186.026 321.794L197.911 315.751L206.662 304.131C204.748 300.807 201.94 298.747 197.857 298.494" fill="#F4F5F5"/>
<path d="M169.565 317.65C169.565 316.769 169.729 316.067 170.042 315.468C166.104 315.11 162.383 314.006 159.67 311.635C158.767 312.44 158.323 313.437 158.323 314.925V362.201C158.323 365.236 160.868 367.697 163.996 367.697L169.593 365.407C169.592 365.244 169.566 365.09 169.566 364.926V317.65" fill="#34484C"/>
<path d="M216.592 352.655C216.592 355.691 214.981 356.488 210.923 358.151L175.226 370.424C172.094 370.424 169.552 367.964 169.552 364.928V317.65C169.552 314.615 171.395 313.606 175.226 312.148L210.923 299.879C214.052 299.879 216.592 302.341 216.592 305.378V352.655" fill="#F79420"/>
<path d="M201.811 314.308C201.847 314.4 201.864 314.498 201.861 314.597C201.858 314.696 201.835 314.793 201.794 314.883C201.753 314.973 201.694 315.053 201.621 315.12C201.548 315.187 201.463 315.238 201.37 315.271L182.388 322.375C182.199 322.446 181.991 322.441 181.806 322.361C181.621 322.282 181.474 322.134 181.396 321.948C181.359 321.857 181.342 321.758 181.345 321.66C181.347 321.561 181.37 321.464 181.411 321.374C181.452 321.284 181.51 321.204 181.583 321.137C181.656 321.07 181.741 321.019 181.834 320.986L200.819 313.883C201.007 313.812 201.216 313.816 201.401 313.896C201.586 313.976 201.733 314.125 201.811 314.311M201.811 317.689C201.847 317.781 201.864 317.879 201.861 317.978C201.858 318.077 201.835 318.174 201.794 318.264C201.753 318.354 201.694 318.434 201.621 318.501C201.548 318.567 201.463 318.619 201.37 318.652L182.388 325.744C182.199 325.816 181.99 325.812 181.805 325.732C181.62 325.652 181.473 325.503 181.396 325.317C181.36 325.226 181.344 325.128 181.347 325.03C181.35 324.932 181.373 324.836 181.414 324.746C181.455 324.657 181.513 324.577 181.585 324.511C181.657 324.445 181.742 324.393 181.834 324.36L200.819 317.256C201.007 317.184 201.216 317.189 201.401 317.268C201.587 317.348 201.733 317.497 201.811 317.683M195.359 323.611C195.511 323.996 195.419 324.387 195.148 324.488L182.184 329.338C181.914 329.435 181.572 329.207 181.418 328.826C181.266 328.443 181.363 328.048 181.633 327.946L194.597 323.099C194.863 323.001 195.205 323.228 195.359 323.611" fill="#905A24"/>
<path d="M1483.63 88.2125C1481.85 88.4813 1430.88 89.3688 1428.74 88.325C1425.88 86.9375 1425.41 83.0313 1426.89 80.275C1428.11 78.0125 1431.22 77.9563 1433.38 77.9188C1436.64 77.8625 1480.56 77.8875 1483.34 78.2875C1483.96 78.3813 1484.46 78.2938 1484.58 79.0063C1484.72 79.8563 1484.35 80.9063 1484.32 81.775C1484.27 82.825 1484.42 83.8625 1484.55 84.9C1484.63 85.6438 1485.12 86.55 1485.06 87.2875C1485 87.9938 1484.22 88.125 1483.63 88.2125V88.2125Z" fill="white"/>
<path d="M1491.03 71.875C1490.89 70.6563 1490.89 69.4063 1490.75 68.175C1490.21 63.4063 1489.72 58.6375 1489.23 53.8688C1488.58 47.4813 1487.94 41.1 1487.19 34.725C1486.87 31.9938 1486.72 29.1875 1485.87 26.5563C1484.39 21.9813 1478.91 22.3563 1475.04 22.0688C1468.71 21.6 1462.44 21.35 1456.08 21.3813C1452.47 21.4 1448.86 21.4438 1445.25 21.5125C1441.96 21.575 1438.66 21.5938 1435.36 21.7375C1433.71 21.8125 1432.04 21.9875 1430.39 22.1313C1426.73 22.4563 1423.05 24.1438 1421.26 27.3938C1420.47 28.8375 1420.09 30.5063 1419.85 32.1188C1419.19 36.5313 1418.79 40.975 1418.51 45.425C1418.21 49.8563 1418.18 54.2938 1418.16 58.7313C1418.14 64.0938 1417.82 69.45 1417.82 74.8063C1417.82 80.1 1417.39 85.8188 1421.83 89.6375C1423.33 90.9188 1425.06 91.6813 1426.9 92.15C1429.97 92.9375 1478.94 92.5438 1482.13 92.3563C1484.89 92.1938 1490.02 92.9688 1490.31 88.95C1490.4 87.6688 1489.6 86.3813 1489.02 85.2813C1488.41 84.1313 1487.9 82.875 1487.83 81.5625C1487.77 80.2938 1488.14 79.0563 1488.3 77.8125C1489.32 77.85 1490.31 77.1813 1490.79 76.3125C1491.39 75.2188 1491.18 73.0938 1491.03 71.875V71.875ZM1483.2 88.2125C1481.43 88.4813 1430.45 89.3688 1428.31 88.325C1425.45 86.9375 1424.98 83.0313 1426.47 80.275C1427.68 78.0125 1430.79 77.25 1432.95 77.2125C1436.22 77.1563 1480.35 75.475 1483.13 75.875C1483.53 75.9313 1484.06 75.8875 1484.28 76.3C1484.41 76.5438 1484.4 76.775 1484.31 77.0188C1483.98 77.9313 1483.81 78.8938 1483.73 79.8563C1483.63 81.1375 1483.5 82.425 1483.62 83.7125C1483.68 84.3813 1483.8 85.0375 1484.03 85.675C1484.21 86.1875 1484.69 86.7375 1484.63 87.2938C1484.56 87.9938 1483.79 88.125 1483.2 88.2125V88.2125ZM1485.73 71.35C1485.71 71.5625 1485.67 71.7625 1485.6 71.95C1485.02 73.3875 1481.14 72.5313 1480 72.5125L1471.16 72.3625C1467.53 72.3 1463.9 72.2438 1460.26 72.1813C1456.54 72.125 1452.83 72.0625 1449.12 72.0063C1445.94 71.9563 1442.77 71.9125 1439.6 71.8625C1437.57 71.8313 1435.55 71.8063 1433.53 71.7875C1433.26 71.7813 1432.99 71.7813 1432.72 71.7813C1427.78 71.7813 1425.23 74.525 1425.23 74.525C1425.07 74.8625 1425.05 75.6813 1424.62 75.825C1424.16 75.9813 1423.98 75.35 1423.88 75.0063C1423.66 74.1688 1423.72 73.2313 1423.73 72.375C1423.75 70.8063 1423.86 69.25 1423.88 67.6813C1423.97 62.6625 1424.15 57.65 1424.33 52.6375C1424.52 47.5813 1424.74 42.5313 1424.98 37.4813C1425.07 35.6063 1425.16 33.7375 1425.26 31.8688C1425.4 29.4875 1425.26 27.3625 1427.79 26.3688C1434.38 23.7813 1442.45 24.625 1449.41 24.5125C1456.05 24.4125 1462.67 25.0563 1469.3 25.2313C1471.37 25.2875 1473.43 25.6438 1475.53 25.675C1477.55 25.7 1479.79 25.875 1481.23 27.4688C1481.97 28.2875 1482.36 29.3313 1482.55 30.4C1482.74 31.5063 1483.08 32.5563 1483.2 33.6938C1483.88 39.9875 1484.25 46.3063 1484.71 52.6188C1484.92 55.4125 1485.14 58.2 1485.42 60.9813C1485.75 64.3625 1486.01 67.9688 1485.73 71.35V71.35Z" fill="#2F2F2F"/>
<path d="M1419.29 86.2875C1420.8 88.1563 1421.56 85.9125 1421.56 85.9125C1421.94 78.4313 1430.65 78.0563 1430.65 78.0563C1435.76 77.1188 1488.3 77.8125 1488.3 77.8125C1489.32 77.85 1490.31 77.1813 1490.79 76.3125C1491.39 75.2125 1491.18 73.0875 1491.03 71.8688C1490.89 70.65 1490.89 69.4 1490.75 68.1688C1490.21 63.4 1489.72 58.6313 1489.23 53.8625C1488.58 47.475 1487.94 41.0938 1487.19 34.7188C1486.87 31.9876 1486.72 29.1813 1485.87 26.5501C1484.39 21.9751 1478.91 22.3501 1475.04 22.0626C1468.71 21.5938 1462.44 21.3438 1456.08 21.3751C1452.47 21.3938 1448.86 21.4376 1445.25 21.5063C1441.96 21.5688 1438.66 21.5876 1435.36 21.7313C1433.71 21.8063 1432.04 21.9813 1430.39 22.1251C1426.73 22.4501 1423.05 24.1376 1421.26 27.3876C1420.47 28.8313 1420.09 30.5001 1419.85 32.1126C1419.19 36.5313 1418.79 40.975 1418.51 45.425C1418.21 49.8563 1418.18 54.2938 1418.16 58.7313C1418.14 64.0938 1417.82 69.45 1417.82 74.8063C1417.82 78.725 1417.59 82.8688 1419.26 86.3125L1419.29 86.2875V86.2875Z" fill="#D7598B"/>
<path d="M1470.45 39.725C1470.53 40.4813 1469.97 41.1 1469.2 41.1H1443.62C1442.86 41.1 1442.22 40.475 1442.22 39.7188V33.5875C1442.22 32.825 1442.86 32.2063 1443.62 32.2063H1468.24C1469.01 32.2063 1469.71 32.825 1469.79 33.5813L1470.45 39.725Z" fill="white"/>
<defs>
<clipPath id="clip0_344_60">
<rect width="78" height="78" fill="white" transform="translate(227 74)"/>
</clipPath>
</defs>
</svg>
