<svg width="160" height="44" viewBox="0 0 160 44" fill="none" xmlns="http://www.w3.org/2000/svg">
<rect width="160" height="44" rx="11" fill="white"/>
<path d="M17.736 20.404C17.56 20.452 17.472 20.508 17.472 20.572C17.472 20.62 17.664 20.716 18.048 20.86C18.432 21.004 18.792 21.228 19.128 21.532C19.48 21.836 19.728 22.204 19.872 22.636C20.096 23.292 20.208 23.996 20.208 24.748C20.208 25.5 20.264 26.124 20.376 26.62C20.488 27.1 20.624 27.468 20.784 27.724C21.104 28.268 21.4 28.604 21.672 28.732L21.84 28.828C21.936 28.892 21.984 28.972 21.984 29.068C21.984 29.308 21.592 29.516 20.808 29.692C20.024 29.884 19.416 29.98 18.984 29.98C18.136 29.98 17.592 29.644 17.352 28.972C17.128 28.284 17.016 27.116 17.016 25.468V24.148C17.016 22.756 16.6 21.868 15.768 21.484C15.448 21.34 15.064 21.268 14.616 21.268H14.592C14.448 21.268 14.376 21.132 14.376 20.86C14.376 20.572 14.456 20.284 14.616 19.996C14.792 19.708 14.944 19.564 15.072 19.564C15.6 19.564 16.056 19.468 16.44 19.276C16.824 19.068 17.104 18.82 17.28 18.532C17.648 17.924 17.848 17.404 17.88 16.972V16.66C17.88 16.068 17.784 15.572 17.592 15.172C17.4 14.756 17.16 14.468 16.872 14.308C16.392 14.052 15.904 13.924 15.408 13.924C14.912 13.924 14.504 13.964 14.184 14.044C13.736 14.172 13.512 14.308 13.512 14.452C13.368 16.548 13.296 18.572 13.296 20.524C13.296 22.46 13.32 23.948 13.368 24.988C13.432 26.012 13.488 26.844 13.536 27.484C13.6 28.108 13.632 28.476 13.632 28.588C13.632 28.796 13.576 28.94 13.464 29.02C12.808 29.628 11.776 29.932 10.368 29.932C10.128 29.932 10.008 29.852 10.008 29.692C10.008 29.644 10.032 29.532 10.08 29.356C10.24 28.988 10.352 27.82 10.416 25.852C10.496 23.884 10.536 22.092 10.536 20.476C10.536 18.844 10.504 17.524 10.44 16.516C10.344 14.996 10.184 14.084 9.96 13.78C9.784 13.556 9.696 13.404 9.696 13.324C9.696 13.228 9.784 13.132 9.96 13.036C10.984 12.556 12.84 12.316 15.528 12.316C17.688 12.316 19.304 12.924 20.376 14.14C20.952 14.812 21.24 15.652 21.24 16.66C21.24 17.268 21.12 17.812 20.88 18.292C20.64 18.772 20.344 19.14 19.992 19.396C19.32 19.908 18.688 20.22 18.096 20.332L17.736 20.404ZM24.6797 23.404L24.7037 24.004C24.7037 24.1 24.7677 24.148 24.8957 24.148C25.4077 24.1 25.8557 23.972 26.2397 23.764C26.6237 23.54 26.9117 23.292 27.1037 23.02C27.4877 22.428 27.6957 21.916 27.7277 21.484L27.7517 21.196C27.7517 20.332 27.4077 19.9 26.7197 19.9C26.2077 19.9 25.7917 20.124 25.4717 20.572C24.9437 21.276 24.6797 22.22 24.6797 23.404ZM29.9117 26.596C29.9117 27.204 29.7837 27.74 29.5277 28.204C29.2877 28.652 29.0077 28.988 28.6877 29.212C28.3837 29.42 28.0237 29.588 27.6077 29.716C27.0797 29.876 26.5757 29.956 26.0957 29.956C24.7517 29.956 23.7597 29.452 23.1197 28.444C22.4797 27.436 22.1597 26.156 22.1597 24.604C22.1597 23.036 22.5517 21.644 23.3357 20.428C24.1357 19.212 25.3277 18.604 26.9117 18.604C28.3517 18.604 29.3277 19.108 29.8397 20.116C30.0477 20.5 30.1517 20.868 30.1517 21.22C30.1517 21.556 30.1357 21.828 30.1037 22.036C30.0717 22.228 29.9597 22.524 29.7677 22.924C29.5757 23.324 29.3197 23.684 28.9997 24.004C28.6797 24.324 28.1757 24.628 27.4877 24.916C26.7997 25.204 25.9917 25.396 25.0637 25.492C24.9357 25.492 24.8717 25.548 24.8717 25.66C24.8717 25.804 24.9197 26.02 25.0157 26.308C25.1277 26.58 25.2477 26.812 25.3757 27.004C25.7277 27.452 26.2477 27.676 26.9357 27.676C27.6237 27.676 28.2077 27.452 28.6877 27.004C28.9437 26.764 29.1517 26.468 29.3117 26.116C29.3757 25.988 29.4557 25.924 29.5517 25.924C29.6637 25.924 29.7517 26.012 29.8157 26.188C29.8797 26.364 29.9117 26.5 29.9117 26.596ZM31.2356 29.668C31.5236 27.94 31.6676 25.868 31.6676 23.452C31.6676 21.036 31.5956 19.468 31.4516 18.748C31.4516 18.54 31.6916 18.436 32.1716 18.436C32.9076 18.436 33.3956 18.716 33.6356 19.276C33.6516 19.324 33.6916 19.348 33.7556 19.348C33.8196 19.348 33.8676 19.332 33.8996 19.3C34.3956 18.788 35.1636 18.532 36.2036 18.532C37.2436 18.532 38.0676 18.796 38.6756 19.324C39.2836 19.852 39.5876 20.62 39.5876 21.628C39.5876 22.236 39.5316 23.1 39.4196 24.22C39.3236 25.34 39.2756 26.172 39.2756 26.716C39.2756 28.012 39.4916 28.948 39.9236 29.524C39.9876 29.604 40.0196 29.684 40.0196 29.764C40.0196 29.972 39.7956 30.076 39.3476 30.076C37.3636 30.076 36.3716 29.196 36.3716 27.436C36.3716 26.764 36.5236 25.828 36.8276 24.628C37.1316 23.428 37.2836 22.516 37.2836 21.892C37.2836 20.612 36.7556 19.972 35.6996 19.972C35.1876 19.972 34.7956 20.124 34.5236 20.428C34.2676 20.732 34.1236 21.084 34.0916 21.484C34.0596 21.868 34.0436 22.604 34.0436 23.692C34.0436 25.356 34.0996 26.804 34.2116 28.036L34.2596 28.564C34.2596 29.012 33.9636 29.356 33.3716 29.596C32.7956 29.852 32.2916 29.98 31.8596 29.98C31.4436 29.98 31.2356 29.876 31.2356 29.668ZM40.4616 20.14L40.5336 19.18C40.5496 19.036 40.6616 18.964 40.8696 18.964H41.7096L41.6136 17.044V16.948C41.6136 16.58 41.8936 16.228 42.4536 15.892C43.0136 15.556 43.5256 15.388 43.9896 15.388C44.1336 15.388 44.2056 15.452 44.2056 15.58V15.604C44.1416 16.036 44.0776 17.148 44.0136 18.94C44.7176 18.94 45.1656 18.924 45.3576 18.892C45.5496 18.86 45.6536 18.844 45.6696 18.844C45.7816 18.844 45.8376 18.94 45.8376 19.132C45.8376 19.324 45.7496 19.572 45.5736 19.876C45.3976 20.164 45.2056 20.316 44.9976 20.332H43.9896C43.9736 20.876 43.9656 21.796 43.9656 23.092C43.9656 24.372 43.9736 25.428 43.9896 26.26C44.0216 27.092 44.0536 27.724 44.0856 28.156C44.1176 28.572 44.1496 28.908 44.1816 29.164C44.2296 29.42 44.2616 29.604 44.2776 29.716C44.3096 29.828 44.3256 29.9 44.3256 29.932C44.3256 30.092 44.2216 30.18 44.0136 30.196C43.3896 30.196 42.7656 30.108 42.1416 29.932C41.5336 29.756 41.2296 29.452 41.2296 29.02C41.5656 26.332 41.7336 23.444 41.7336 20.356C41.3016 20.356 40.9736 20.372 40.7496 20.404H40.7256C40.5816 20.404 40.4936 20.316 40.4616 20.14Z" fill="black"/>
<path d="M58 6.6V37.4C58 42.2422 61.9867 44 64.6667 44H98V39.6H64.6933C63.6667 39.5736 62.4444 39.1732 62.4444 37.4C62.4444 35.6268 63.6667 35.2264 64.6933 35.2H98V4.4C98 1.9734 96.0067 0 93.5556 0H64.6667C61.9867 0 58 1.7578 58 6.6Z" fill="#FF6363"/>
<path d="M80.5145 20.236L80.4865 16.904C80.4865 13.6 80.3745 11.4067 80.1505 10.324C80.1132 10.1933 80.0945 10.0907 80.0945 10.016C80.0945 9.69867 80.4118 9.428 81.0465 9.204C81.6812 8.98 82.1852 8.868 82.5585 8.868C82.9318 8.868 83.1185 8.98 83.1185 9.204C83.1185 9.22267 83.0998 9.32533 83.0625 9.512C82.6332 11.808 82.4185 15.4573 82.4185 20.46C82.4185 23.876 82.6145 26.3307 83.0065 27.824C83.0812 28.0667 83.1185 28.1973 83.1185 28.216C83.1185 28.608 82.6892 28.9253 81.8305 29.168C80.9718 29.4293 80.3652 29.56 80.0105 29.56C79.4505 29.56 79.0678 29.4293 78.8625 29.168C78.4518 28.6453 77.7798 27.18 76.8465 24.772C75.9318 22.3453 75.1292 20.0867 74.4385 17.996L73.3745 14.86C73.3372 14.7667 73.2905 14.72 73.2345 14.72C73.1598 14.72 73.0758 14.7853 72.9825 14.916C72.8892 16.652 72.8425 18.388 72.8425 20.124C72.8425 21.86 72.8518 23.1947 72.8705 24.128C72.9078 25.0613 72.9452 25.7707 72.9825 26.256C73.0198 26.7413 73.0572 27.1333 73.0945 27.432C73.1318 27.712 73.1598 27.9173 73.1785 28.048C73.2158 28.1787 73.2345 28.272 73.2345 28.328C73.2345 28.6827 72.9265 28.9533 72.3105 29.14C71.6945 29.3453 71.1345 29.448 70.6305 29.448C70.1452 29.448 69.9025 29.336 69.9025 29.112C69.9025 29 69.9305 28.86 69.9865 28.692C70.0425 28.524 70.1078 28.3093 70.1825 28.048C70.3692 27.3947 70.4998 26.2093 70.5745 24.492C70.6492 22.756 70.6865 20.7867 70.6865 18.584C70.6865 16.3627 70.6585 14.748 70.6025 13.74C70.5092 12.0973 70.3412 10.996 70.0985 10.436C70.0425 10.38 70.0145 10.3053 70.0145 10.212C70.0145 9.91333 70.5092 9.624 71.4985 9.344C72.4878 9.064 73.2532 8.924 73.7945 8.924C74.3545 8.924 74.6812 8.93333 74.7745 8.952C75.0358 8.93333 75.1945 9.08267 75.2505 9.4C75.7918 11.36 76.5478 13.6653 77.5185 16.316C78.5078 18.9667 79.3852 20.992 80.1505 22.392C80.2438 22.4853 80.3185 22.532 80.3745 22.532C80.4678 22.532 80.5145 21.7667 80.5145 20.236ZM87.5208 10.66C87.5208 12.6947 87.0262 13.9547 86.0368 14.44C85.9062 14.5147 85.7755 14.5707 85.6448 14.608C85.5142 14.608 85.4488 14.5147 85.4488 14.328C85.9155 13.768 86.1488 13.1053 86.1488 12.34C86.1488 12.004 85.9808 11.836 85.6448 11.836C85.1595 11.836 84.8608 11.7333 84.7488 11.528C84.5995 11.2293 84.5248 10.856 84.5248 10.408C84.5248 9.94133 84.6182 9.61467 84.8048 9.428C84.9915 9.22267 85.3648 9.12 85.9248 9.12C86.4848 9.12 86.8862 9.24133 87.1288 9.484C87.3902 9.72667 87.5208 10.1187 87.5208 10.66Z" fill="white"/>
<path d="M118.736 20.404C118.56 20.452 118.472 20.508 118.472 20.572C118.472 20.62 118.664 20.716 119.048 20.86C119.432 21.004 119.792 21.228 120.128 21.532C120.48 21.836 120.728 22.204 120.872 22.636C121.096 23.292 121.208 23.996 121.208 24.748C121.208 25.5 121.264 26.124 121.376 26.62C121.488 27.1 121.624 27.468 121.784 27.724C122.104 28.268 122.4 28.604 122.672 28.732L122.84 28.828C122.936 28.892 122.984 28.972 122.984 29.068C122.984 29.308 122.592 29.516 121.808 29.692C121.024 29.884 120.416 29.98 119.984 29.98C119.136 29.98 118.592 29.644 118.352 28.972C118.128 28.284 118.016 27.116 118.016 25.468V24.148C118.016 22.756 117.6 21.868 116.768 21.484C116.448 21.34 116.064 21.268 115.616 21.268H115.592C115.448 21.268 115.376 21.132 115.376 20.86C115.376 20.572 115.456 20.284 115.616 19.996C115.792 19.708 115.944 19.564 116.072 19.564C116.6 19.564 117.056 19.468 117.44 19.276C117.824 19.068 118.104 18.82 118.28 18.532C118.648 17.924 118.848 17.404 118.88 16.972V16.66C118.88 16.068 118.784 15.572 118.592 15.172C118.4 14.756 118.16 14.468 117.872 14.308C117.392 14.052 116.904 13.924 116.408 13.924C115.912 13.924 115.504 13.964 115.184 14.044C114.736 14.172 114.512 14.308 114.512 14.452C114.368 16.548 114.296 18.572 114.296 20.524C114.296 22.46 114.32 23.948 114.368 24.988C114.432 26.012 114.488 26.844 114.536 27.484C114.6 28.108 114.632 28.476 114.632 28.588C114.632 28.796 114.576 28.94 114.464 29.02C113.808 29.628 112.776 29.932 111.368 29.932C111.128 29.932 111.008 29.852 111.008 29.692C111.008 29.644 111.032 29.532 111.08 29.356C111.24 28.988 111.352 27.82 111.416 25.852C111.496 23.884 111.536 22.092 111.536 20.476C111.536 18.844 111.504 17.524 111.44 16.516C111.344 14.996 111.184 14.084 110.96 13.78C110.784 13.556 110.696 13.404 110.696 13.324C110.696 13.228 110.784 13.132 110.96 13.036C111.984 12.556 113.84 12.316 116.528 12.316C118.688 12.316 120.304 12.924 121.376 14.14C121.952 14.812 122.24 15.652 122.24 16.66C122.24 17.268 122.12 17.812 121.88 18.292C121.64 18.772 121.344 19.14 120.992 19.396C120.32 19.908 119.688 20.22 119.096 20.332L118.736 20.404ZM125.68 23.404L125.704 24.004C125.704 24.1 125.768 24.148 125.896 24.148C126.408 24.1 126.856 23.972 127.24 23.764C127.624 23.54 127.912 23.292 128.104 23.02C128.488 22.428 128.696 21.916 128.728 21.484L128.752 21.196C128.752 20.332 128.408 19.9 127.72 19.9C127.208 19.9 126.792 20.124 126.472 20.572C125.944 21.276 125.68 22.22 125.68 23.404ZM130.912 26.596C130.912 27.204 130.784 27.74 130.528 28.204C130.288 28.652 130.008 28.988 129.688 29.212C129.384 29.42 129.024 29.588 128.608 29.716C128.08 29.876 127.576 29.956 127.096 29.956C125.752 29.956 124.76 29.452 124.12 28.444C123.48 27.436 123.16 26.156 123.16 24.604C123.16 23.036 123.552 21.644 124.336 20.428C125.136 19.212 126.328 18.604 127.912 18.604C129.352 18.604 130.328 19.108 130.84 20.116C131.048 20.5 131.152 20.868 131.152 21.22C131.152 21.556 131.136 21.828 131.104 22.036C131.072 22.228 130.96 22.524 130.768 22.924C130.576 23.324 130.32 23.684 130 24.004C129.68 24.324 129.176 24.628 128.488 24.916C127.8 25.204 126.992 25.396 126.064 25.492C125.936 25.492 125.872 25.548 125.872 25.66C125.872 25.804 125.92 26.02 126.016 26.308C126.128 26.58 126.248 26.812 126.376 27.004C126.728 27.452 127.248 27.676 127.936 27.676C128.624 27.676 129.208 27.452 129.688 27.004C129.944 26.764 130.152 26.468 130.312 26.116C130.376 25.988 130.456 25.924 130.552 25.924C130.664 25.924 130.752 26.012 130.816 26.188C130.88 26.364 130.912 26.5 130.912 26.596ZM139.924 22.3L139.876 25.372C139.876 27.5 140.108 28.78 140.572 29.212C140.636 29.276 140.668 29.348 140.668 29.428C140.668 29.668 140.148 29.788 139.108 29.788C138.084 29.788 137.54 29.484 137.476 28.876C137.46 28.732 137.452 28.436 137.452 27.988L137.548 24.148C137.548 24.036 137.484 23.98 137.355 23.98C136.588 23.98 135.868 24.196 135.196 24.628C134.524 25.06 134.188 25.612 134.188 26.284C134.188 26.636 134.284 26.932 134.476 27.172C134.668 27.412 134.9 27.532 135.172 27.532C135.46 27.532 135.692 27.476 135.868 27.364C136.06 27.252 136.172 27.188 136.204 27.172C136.476 27.204 136.612 27.492 136.612 28.036C136.612 28.564 136.364 28.996 135.868 29.332C135.372 29.652 134.852 29.812 134.308 29.812C133.764 29.812 133.292 29.716 132.892 29.524C132.508 29.332 132.228 29.116 132.052 28.876C131.876 28.636 131.732 28.364 131.62 28.06C131.508 27.692 131.452 27.372 131.452 27.1C131.452 25.98 131.804 25.084 132.508 24.412C133.212 23.74 134.116 23.26 135.22 22.972C136.676 22.684 137.436 22.42 137.5 22.18C137.548 22.004 137.572 21.708 137.572 21.292C137.572 20.444 137.14 20.02 136.276 20.02C135.908 20.02 135.58 20.14 135.292 20.38C135.004 20.604 134.86 20.892 134.86 21.244L135.004 21.82C134.972 22.092 134.684 22.252 134.14 22.3L133.876 22.324C133.396 22.324 133.012 22.204 132.724 21.964C132.452 21.724 132.316 21.404 132.316 21.004C132.316 20.748 132.396 20.468 132.556 20.164C132.732 19.844 132.948 19.588 133.204 19.396C133.46 19.204 133.852 19.036 134.38 18.892C134.924 18.732 135.444 18.652 135.94 18.652C136.436 18.652 136.82 18.668 137.092 18.7C137.364 18.732 137.732 18.812 138.196 18.94C138.676 19.052 139.068 19.276 139.372 19.612C139.692 19.948 139.86 20.308 139.876 20.692C139.908 21.06 139.924 21.596 139.924 22.3ZM146.176 18.724C146.464 18.724 146.72 18.764 146.944 18.844C147.184 18.908 147.312 18.94 147.328 18.94L147.472 18.82L147.376 16.204C147.344 15.756 147.248 15.372 147.088 15.052C146.928 14.732 146.784 14.524 146.656 14.428L146.44 14.308C146.344 14.244 146.296 14.172 146.296 14.092C146.296 13.852 146.664 13.572 147.4 13.252C148.152 12.932 148.736 12.772 149.152 12.772C149.568 12.772 149.792 12.86 149.824 13.036C149.904 13.58 149.944 14.62 149.944 16.156C149.944 17.676 149.904 19.172 149.824 20.644C149.76 22.116 149.728 23.788 149.728 25.66C149.728 27.516 149.848 28.684 150.088 29.164C150.152 29.276 150.184 29.38 150.184 29.476C150.184 29.716 149.84 29.836 149.152 29.836C147.84 29.836 147.184 29.524 147.184 28.9C147.152 28.644 147.136 28.252 147.136 27.724C147.136 27.18 147.184 26.18 147.28 24.724C147.392 23.252 147.448 22.124 147.448 21.34C147.448 20.54 147.048 20.14 146.248 20.14C145.464 20.14 144.864 20.604 144.448 21.532C144.032 22.46 143.824 23.388 143.824 24.316C143.824 26.284 144.32 27.268 145.312 27.268C145.456 27.268 145.592 27.244 145.72 27.196C145.864 27.132 145.952 27.1 145.984 27.1C146.112 27.1 146.208 27.18 146.272 27.34C146.352 27.5 146.392 27.66 146.392 27.82C146.392 28.364 146.176 28.828 145.744 29.212C145.312 29.58 144.784 29.764 144.16 29.764C143.2 29.764 142.472 29.348 141.976 28.516C141.496 27.668 141.256 26.62 141.256 25.372C141.256 23.788 141.632 22.316 142.384 20.956C142.768 20.284 143.288 19.748 143.944 19.348C144.6 18.932 145.344 18.724 146.176 18.724Z" fill="black"/>
</svg>
