<svg width="160" height="59" viewBox="0 0 160 59" fill="none" xmlns="http://www.w3.org/2000/svg">
<g filter="url(#filter0_d_67_283)">
<path d="M17.736 27.904C17.56 27.952 17.472 28.008 17.472 28.072C17.472 28.12 17.664 28.216 18.048 28.36C18.432 28.504 18.792 28.728 19.128 29.032C19.48 29.336 19.728 29.704 19.872 30.136C20.096 30.792 20.208 31.496 20.208 32.248C20.208 33 20.264 33.624 20.376 34.12C20.488 34.6 20.624 34.968 20.784 35.224C21.104 35.768 21.4 36.104 21.672 36.232L21.84 36.328C21.936 36.392 21.984 36.472 21.984 36.568C21.984 36.808 21.592 37.016 20.808 37.192C20.024 37.384 19.416 37.48 18.984 37.48C18.136 37.48 17.592 37.144 17.352 36.472C17.128 35.784 17.016 34.616 17.016 32.968V31.648C17.016 30.256 16.6 29.368 15.768 28.984C15.448 28.84 15.064 28.768 14.616 28.768H14.592C14.448 28.768 14.376 28.632 14.376 28.36C14.376 28.072 14.456 27.784 14.616 27.496C14.792 27.208 14.944 27.064 15.072 27.064C15.6 27.064 16.056 26.968 16.44 26.776C16.824 26.568 17.104 26.32 17.28 26.032C17.648 25.424 17.848 24.904 17.88 24.472V24.16C17.88 23.568 17.784 23.072 17.592 22.672C17.4 22.256 17.16 21.968 16.872 21.808C16.392 21.552 15.904 21.424 15.408 21.424C14.912 21.424 14.504 21.464 14.184 21.544C13.736 21.672 13.512 21.808 13.512 21.952C13.368 24.048 13.296 26.072 13.296 28.024C13.296 29.96 13.32 31.448 13.368 32.488C13.432 33.512 13.488 34.344 13.536 34.984C13.6 35.608 13.632 35.976 13.632 36.088C13.632 36.296 13.576 36.44 13.464 36.52C12.808 37.128 11.776 37.432 10.368 37.432C10.128 37.432 10.008 37.352 10.008 37.192C10.008 37.144 10.032 37.032 10.08 36.856C10.24 36.488 10.352 35.32 10.416 33.352C10.496 31.384 10.536 29.592 10.536 27.976C10.536 26.344 10.504 25.024 10.44 24.016C10.344 22.496 10.184 21.584 9.96 21.28C9.784 21.056 9.696 20.904 9.696 20.824C9.696 20.728 9.784 20.632 9.96 20.536C10.984 20.056 12.84 19.816 15.528 19.816C17.688 19.816 19.304 20.424 20.376 21.64C20.952 22.312 21.24 23.152 21.24 24.16C21.24 24.768 21.12 25.312 20.88 25.792C20.64 26.272 20.344 26.64 19.992 26.896C19.32 27.408 18.688 27.72 18.096 27.832L17.736 27.904ZM24.6797 30.904L24.7037 31.504C24.7037 31.6 24.7677 31.648 24.8957 31.648C25.4077 31.6 25.8557 31.472 26.2397 31.264C26.6237 31.04 26.9117 30.792 27.1037 30.52C27.4877 29.928 27.6957 29.416 27.7277 28.984L27.7517 28.696C27.7517 27.832 27.4077 27.4 26.7197 27.4C26.2077 27.4 25.7917 27.624 25.4717 28.072C24.9437 28.776 24.6797 29.72 24.6797 30.904ZM29.9117 34.096C29.9117 34.704 29.7837 35.24 29.5277 35.704C29.2877 36.152 29.0077 36.488 28.6877 36.712C28.3837 36.92 28.0237 37.088 27.6077 37.216C27.0797 37.376 26.5757 37.456 26.0957 37.456C24.7517 37.456 23.7597 36.952 23.1197 35.944C22.4797 34.936 22.1597 33.656 22.1597 32.104C22.1597 30.536 22.5517 29.144 23.3357 27.928C24.1357 26.712 25.3277 26.104 26.9117 26.104C28.3517 26.104 29.3277 26.608 29.8397 27.616C30.0477 28 30.1517 28.368 30.1517 28.72C30.1517 29.056 30.1357 29.328 30.1037 29.536C30.0717 29.728 29.9597 30.024 29.7677 30.424C29.5757 30.824 29.3197 31.184 28.9997 31.504C28.6797 31.824 28.1757 32.128 27.4877 32.416C26.7997 32.704 25.9917 32.896 25.0637 32.992C24.9357 32.992 24.8717 33.048 24.8717 33.16C24.8717 33.304 24.9197 33.52 25.0157 33.808C25.1277 34.08 25.2477 34.312 25.3757 34.504C25.7277 34.952 26.2477 35.176 26.9357 35.176C27.6237 35.176 28.2077 34.952 28.6877 34.504C28.9437 34.264 29.1517 33.968 29.3117 33.616C29.3757 33.488 29.4557 33.424 29.5517 33.424C29.6637 33.424 29.7517 33.512 29.8157 33.688C29.8797 33.864 29.9117 34 29.9117 34.096ZM31.2356 37.168C31.5236 35.44 31.6676 33.368 31.6676 30.952C31.6676 28.536 31.5956 26.968 31.4516 26.248C31.4516 26.04 31.6916 25.936 32.1716 25.936C32.9076 25.936 33.3956 26.216 33.6356 26.776C33.6516 26.824 33.6916 26.848 33.7556 26.848C33.8196 26.848 33.8676 26.832 33.8996 26.8C34.3956 26.288 35.1636 26.032 36.2036 26.032C37.2436 26.032 38.0676 26.296 38.6756 26.824C39.2836 27.352 39.5876 28.12 39.5876 29.128C39.5876 29.736 39.5316 30.6 39.4196 31.72C39.3236 32.84 39.2756 33.672 39.2756 34.216C39.2756 35.512 39.4916 36.448 39.9236 37.024C39.9876 37.104 40.0196 37.184 40.0196 37.264C40.0196 37.472 39.7956 37.576 39.3476 37.576C37.3636 37.576 36.3716 36.696 36.3716 34.936C36.3716 34.264 36.5236 33.328 36.8276 32.128C37.1316 30.928 37.2836 30.016 37.2836 29.392C37.2836 28.112 36.7556 27.472 35.6996 27.472C35.1876 27.472 34.7956 27.624 34.5236 27.928C34.2676 28.232 34.1236 28.584 34.0916 28.984C34.0596 29.368 34.0436 30.104 34.0436 31.192C34.0436 32.856 34.0996 34.304 34.2116 35.536L34.2596 36.064C34.2596 36.512 33.9636 36.856 33.3716 37.096C32.7956 37.352 32.2916 37.48 31.8596 37.48C31.4436 37.48 31.2356 37.376 31.2356 37.168ZM40.4616 27.64L40.5336 26.68C40.5496 26.536 40.6616 26.464 40.8696 26.464H41.7096L41.6136 24.544V24.448C41.6136 24.08 41.8936 23.728 42.4536 23.392C43.0136 23.056 43.5256 22.888 43.9896 22.888C44.1336 22.888 44.2056 22.952 44.2056 23.08V23.104C44.1416 23.536 44.0776 24.648 44.0136 26.44C44.7176 26.44 45.1656 26.424 45.3576 26.392C45.5496 26.36 45.6536 26.344 45.6696 26.344C45.7816 26.344 45.8376 26.44 45.8376 26.632C45.8376 26.824 45.7496 27.072 45.5736 27.376C45.3976 27.664 45.2056 27.816 44.9976 27.832H43.9896C43.9736 28.376 43.9656 29.296 43.9656 30.592C43.9656 31.872 43.9736 32.928 43.9896 33.76C44.0216 34.592 44.0536 35.224 44.0856 35.656C44.1176 36.072 44.1496 36.408 44.1816 36.664C44.2296 36.92 44.2616 37.104 44.2776 37.216C44.3096 37.328 44.3256 37.4 44.3256 37.432C44.3256 37.592 44.2216 37.68 44.0136 37.696C43.3896 37.696 42.7656 37.608 42.1416 37.432C41.5336 37.256 41.2296 36.952 41.2296 36.52C41.5656 33.832 41.7336 30.944 41.7336 27.856C41.3016 27.856 40.9736 27.872 40.7496 27.904H40.7256C40.5816 27.904 40.4936 27.816 40.4616 27.64Z" fill="white"/>
<path d="M58 11.6V42.4C58 47.2422 61.9867 49 64.6667 49H98V44.6H64.6933C63.6667 44.5736 62.4444 44.1732 62.4444 42.4C62.4444 40.6268 63.6667 40.2264 64.6933 40.2H98V9.4C98 6.9734 96.0067 5 93.5556 5H64.6667C61.9867 5 58 6.7578 58 11.6Z" fill="white"/>
<path d="M80.5145 25.236L80.4865 21.904C80.4865 18.6 80.3745 16.4067 80.1505 15.324C80.1132 15.1933 80.0945 15.0907 80.0945 15.016C80.0945 14.6987 80.4118 14.428 81.0465 14.204C81.6812 13.98 82.1852 13.868 82.5585 13.868C82.9318 13.868 83.1185 13.98 83.1185 14.204C83.1185 14.2227 83.0998 14.3253 83.0625 14.512C82.6332 16.808 82.4185 20.4573 82.4185 25.46C82.4185 28.876 82.6145 31.3307 83.0065 32.824C83.0812 33.0667 83.1185 33.1973 83.1185 33.216C83.1185 33.608 82.6892 33.9253 81.8305 34.168C80.9718 34.4293 80.3652 34.56 80.0105 34.56C79.4505 34.56 79.0678 34.4293 78.8625 34.168C78.4518 33.6453 77.7798 32.18 76.8465 29.772C75.9318 27.3453 75.1292 25.0867 74.4385 22.996L73.3745 19.86C73.3372 19.7667 73.2905 19.72 73.2345 19.72C73.1598 19.72 73.0758 19.7853 72.9825 19.916C72.8892 21.652 72.8425 23.388 72.8425 25.124C72.8425 26.86 72.8518 28.1947 72.8705 29.128C72.9078 30.0613 72.9452 30.7707 72.9825 31.256C73.0198 31.7413 73.0572 32.1333 73.0945 32.432C73.1318 32.712 73.1598 32.9173 73.1785 33.048C73.2158 33.1787 73.2345 33.272 73.2345 33.328C73.2345 33.6827 72.9265 33.9533 72.3105 34.14C71.6945 34.3453 71.1345 34.448 70.6305 34.448C70.1452 34.448 69.9025 34.336 69.9025 34.112C69.9025 34 69.9305 33.86 69.9865 33.692C70.0425 33.524 70.1078 33.3093 70.1825 33.048C70.3692 32.3947 70.4998 31.2093 70.5745 29.492C70.6492 27.756 70.6865 25.7867 70.6865 23.584C70.6865 21.3627 70.6585 19.748 70.6025 18.74C70.5092 17.0973 70.3412 15.996 70.0985 15.436C70.0425 15.38 70.0145 15.3053 70.0145 15.212C70.0145 14.9133 70.5092 14.624 71.4985 14.344C72.4878 14.064 73.2532 13.924 73.7945 13.924C74.3545 13.924 74.6812 13.9333 74.7745 13.952C75.0358 13.9333 75.1945 14.0827 75.2505 14.4C75.7918 16.36 76.5478 18.6653 77.5185 21.316C78.5078 23.9667 79.3852 25.992 80.1505 27.392C80.2438 27.4853 80.3185 27.532 80.3745 27.532C80.4678 27.532 80.5145 26.7667 80.5145 25.236ZM87.5208 15.66C87.5208 17.6947 87.0262 18.9547 86.0368 19.44C85.9062 19.5147 85.7755 19.5707 85.6448 19.608C85.5142 19.608 85.4488 19.5147 85.4488 19.328C85.9155 18.768 86.1488 18.1053 86.1488 17.34C86.1488 17.004 85.9808 16.836 85.6448 16.836C85.1595 16.836 84.8608 16.7333 84.7488 16.528C84.5995 16.2293 84.5248 15.856 84.5248 15.408C84.5248 14.9413 84.6182 14.6147 84.8048 14.428C84.9915 14.2227 85.3648 14.12 85.9248 14.12C86.4848 14.12 86.8862 14.2413 87.1288 14.484C87.3902 14.7267 87.5208 15.1187 87.5208 15.66Z" fill="#FF6363"/>
<path d="M118.736 27.904C118.56 27.952 118.472 28.008 118.472 28.072C118.472 28.12 118.664 28.216 119.048 28.36C119.432 28.504 119.792 28.728 120.128 29.032C120.48 29.336 120.728 29.704 120.872 30.136C121.096 30.792 121.208 31.496 121.208 32.248C121.208 33 121.264 33.624 121.376 34.12C121.488 34.6 121.624 34.968 121.784 35.224C122.104 35.768 122.4 36.104 122.672 36.232L122.84 36.328C122.936 36.392 122.984 36.472 122.984 36.568C122.984 36.808 122.592 37.016 121.808 37.192C121.024 37.384 120.416 37.48 119.984 37.48C119.136 37.48 118.592 37.144 118.352 36.472C118.128 35.784 118.016 34.616 118.016 32.968V31.648C118.016 30.256 117.6 29.368 116.768 28.984C116.448 28.84 116.064 28.768 115.616 28.768H115.592C115.448 28.768 115.376 28.632 115.376 28.36C115.376 28.072 115.456 27.784 115.616 27.496C115.792 27.208 115.944 27.064 116.072 27.064C116.6 27.064 117.056 26.968 117.44 26.776C117.824 26.568 118.104 26.32 118.28 26.032C118.648 25.424 118.848 24.904 118.88 24.472V24.16C118.88 23.568 118.784 23.072 118.592 22.672C118.4 22.256 118.16 21.968 117.872 21.808C117.392 21.552 116.904 21.424 116.408 21.424C115.912 21.424 115.504 21.464 115.184 21.544C114.736 21.672 114.512 21.808 114.512 21.952C114.368 24.048 114.296 26.072 114.296 28.024C114.296 29.96 114.32 31.448 114.368 32.488C114.432 33.512 114.488 34.344 114.536 34.984C114.6 35.608 114.632 35.976 114.632 36.088C114.632 36.296 114.576 36.44 114.464 36.52C113.808 37.128 112.776 37.432 111.368 37.432C111.128 37.432 111.008 37.352 111.008 37.192C111.008 37.144 111.032 37.032 111.08 36.856C111.24 36.488 111.352 35.32 111.416 33.352C111.496 31.384 111.536 29.592 111.536 27.976C111.536 26.344 111.504 25.024 111.44 24.016C111.344 22.496 111.184 21.584 110.96 21.28C110.784 21.056 110.696 20.904 110.696 20.824C110.696 20.728 110.784 20.632 110.96 20.536C111.984 20.056 113.84 19.816 116.528 19.816C118.688 19.816 120.304 20.424 121.376 21.64C121.952 22.312 122.24 23.152 122.24 24.16C122.24 24.768 122.12 25.312 121.88 25.792C121.64 26.272 121.344 26.64 120.992 26.896C120.32 27.408 119.688 27.72 119.096 27.832L118.736 27.904ZM125.68 30.904L125.704 31.504C125.704 31.6 125.768 31.648 125.896 31.648C126.408 31.6 126.856 31.472 127.24 31.264C127.624 31.04 127.912 30.792 128.104 30.52C128.488 29.928 128.696 29.416 128.728 28.984L128.752 28.696C128.752 27.832 128.408 27.4 127.72 27.4C127.208 27.4 126.792 27.624 126.472 28.072C125.944 28.776 125.68 29.72 125.68 30.904ZM130.912 34.096C130.912 34.704 130.784 35.24 130.528 35.704C130.288 36.152 130.008 36.488 129.688 36.712C129.384 36.92 129.024 37.088 128.608 37.216C128.08 37.376 127.576 37.456 127.096 37.456C125.752 37.456 124.76 36.952 124.12 35.944C123.48 34.936 123.16 33.656 123.16 32.104C123.16 30.536 123.552 29.144 124.336 27.928C125.136 26.712 126.328 26.104 127.912 26.104C129.352 26.104 130.328 26.608 130.84 27.616C131.048 28 131.152 28.368 131.152 28.72C131.152 29.056 131.136 29.328 131.104 29.536C131.072 29.728 130.96 30.024 130.768 30.424C130.576 30.824 130.32 31.184 130 31.504C129.68 31.824 129.176 32.128 128.488 32.416C127.8 32.704 126.992 32.896 126.064 32.992C125.936 32.992 125.872 33.048 125.872 33.16C125.872 33.304 125.92 33.52 126.016 33.808C126.128 34.08 126.248 34.312 126.376 34.504C126.728 34.952 127.248 35.176 127.936 35.176C128.624 35.176 129.208 34.952 129.688 34.504C129.944 34.264 130.152 33.968 130.312 33.616C130.376 33.488 130.456 33.424 130.552 33.424C130.664 33.424 130.752 33.512 130.816 33.688C130.88 33.864 130.912 34 130.912 34.096ZM139.924 29.8L139.876 32.872C139.876 35 140.108 36.28 140.572 36.712C140.636 36.776 140.668 36.848 140.668 36.928C140.668 37.168 140.148 37.288 139.108 37.288C138.084 37.288 137.54 36.984 137.476 36.376C137.46 36.232 137.452 35.936 137.452 35.488L137.548 31.648C137.548 31.536 137.484 31.48 137.355 31.48C136.588 31.48 135.868 31.696 135.196 32.128C134.524 32.56 134.188 33.112 134.188 33.784C134.188 34.136 134.284 34.432 134.476 34.672C134.668 34.912 134.9 35.032 135.172 35.032C135.46 35.032 135.692 34.976 135.868 34.864C136.06 34.752 136.172 34.688 136.204 34.672C136.476 34.704 136.612 34.992 136.612 35.536C136.612 36.064 136.364 36.496 135.868 36.832C135.372 37.152 134.852 37.312 134.308 37.312C133.764 37.312 133.292 37.216 132.892 37.024C132.508 36.832 132.228 36.616 132.052 36.376C131.876 36.136 131.732 35.864 131.62 35.56C131.508 35.192 131.452 34.872 131.452 34.6C131.452 33.48 131.804 32.584 132.508 31.912C133.212 31.24 134.116 30.76 135.22 30.472C136.676 30.184 137.436 29.92 137.5 29.68C137.548 29.504 137.572 29.208 137.572 28.792C137.572 27.944 137.14 27.52 136.276 27.52C135.908 27.52 135.58 27.64 135.292 27.88C135.004 28.104 134.86 28.392 134.86 28.744L135.004 29.32C134.972 29.592 134.684 29.752 134.14 29.8L133.876 29.824C133.396 29.824 133.012 29.704 132.724 29.464C132.452 29.224 132.316 28.904 132.316 28.504C132.316 28.248 132.396 27.968 132.556 27.664C132.732 27.344 132.948 27.088 133.204 26.896C133.46 26.704 133.852 26.536 134.38 26.392C134.924 26.232 135.444 26.152 135.94 26.152C136.436 26.152 136.82 26.168 137.092 26.2C137.364 26.232 137.732 26.312 138.196 26.44C138.676 26.552 139.068 26.776 139.372 27.112C139.692 27.448 139.86 27.808 139.876 28.192C139.908 28.56 139.924 29.096 139.924 29.8ZM146.176 26.224C146.464 26.224 146.72 26.264 146.944 26.344C147.184 26.408 147.312 26.44 147.328 26.44L147.472 26.32L147.376 23.704C147.344 23.256 147.248 22.872 147.088 22.552C146.928 22.232 146.784 22.024 146.656 21.928L146.44 21.808C146.344 21.744 146.296 21.672 146.296 21.592C146.296 21.352 146.664 21.072 147.4 20.752C148.152 20.432 148.736 20.272 149.152 20.272C149.568 20.272 149.792 20.36 149.824 20.536C149.904 21.08 149.944 22.12 149.944 23.656C149.944 25.176 149.904 26.672 149.824 28.144C149.76 29.616 149.728 31.288 149.728 33.16C149.728 35.016 149.848 36.184 150.088 36.664C150.152 36.776 150.184 36.88 150.184 36.976C150.184 37.216 149.84 37.336 149.152 37.336C147.84 37.336 147.184 37.024 147.184 36.4C147.152 36.144 147.136 35.752 147.136 35.224C147.136 34.68 147.184 33.68 147.28 32.224C147.392 30.752 147.448 29.624 147.448 28.84C147.448 28.04 147.048 27.64 146.248 27.64C145.464 27.64 144.864 28.104 144.448 29.032C144.032 29.96 143.824 30.888 143.824 31.816C143.824 33.784 144.32 34.768 145.312 34.768C145.456 34.768 145.592 34.744 145.72 34.696C145.864 34.632 145.952 34.6 145.984 34.6C146.112 34.6 146.208 34.68 146.272 34.84C146.352 35 146.392 35.16 146.392 35.32C146.392 35.864 146.176 36.328 145.744 36.712C145.312 37.08 144.784 37.264 144.16 37.264C143.2 37.264 142.472 36.848 141.976 36.016C141.496 35.168 141.256 34.12 141.256 32.872C141.256 31.288 141.632 29.816 142.384 28.456C142.768 27.784 143.288 27.248 143.944 26.848C144.6 26.432 145.344 26.224 146.176 26.224Z" fill="white"/>
</g>
<defs>
<filter id="filter0_d_67_283" x="-4" y="-2" width="170" height="69" filterUnits="userSpaceOnUse" color-interpolation-filters="sRGB">
<feFlood flood-opacity="0" result="BackgroundImageFix"/>
<feColorMatrix in="SourceAlpha" type="matrix" values="0 0 0 0 0 0 0 0 0 0 0 0 0 0 0 0 0 0 127 0" result="hardAlpha"/>
<feOffset dx="1" dy="3"/>
<feGaussianBlur stdDeviation="2.5"/>
<feComposite in2="hardAlpha" operator="out"/>
<feColorMatrix type="matrix" values="0 0 0 0 0.608333 0 0 0 0 0.608333 0 0 0 0 0.608333 0 0 0 0.17 0"/>
<feBlend mode="normal" in2="BackgroundImageFix" result="effect1_dropShadow_67_283"/>
<feBlend mode="normal" in="SourceGraphic" in2="effect1_dropShadow_67_283" result="shape"/>
</filter>
</defs>
</svg>
