<svg width="1005" height="103" viewBox="0 0 1005 103" fill="none" xmlns="http://www.w3.org/2000/svg">
<path d="M81.32 101H59.432L22.824 45.576V101H0.936V11.144H22.824L59.432 66.824V11.144H81.32V101ZM129.698 102.024C122.701 102.024 116.386 100.531 110.754 97.544C105.207 94.5573 100.813 90.2907 97.57 84.744C94.4127 79.1973 92.834 72.712 92.834 65.288C92.834 57.9493 94.4553 51.5067 97.698 45.96C100.941 40.328 105.378 36.0187 111.01 33.032C116.642 30.0453 122.957 28.552 129.954 28.552C136.951 28.552 143.266 30.0453 148.898 33.032C154.53 36.0187 158.967 40.328 162.21 45.96C165.453 51.5067 167.074 57.9493 167.074 65.288C167.074 72.6267 165.41 79.112 162.082 84.744C158.839 90.2907 154.359 94.5573 148.642 97.544C143.01 100.531 136.695 102.024 129.698 102.024ZM129.698 83.08C133.879 83.08 137.421 81.544 140.322 78.472C143.309 75.4 144.802 71.0053 144.802 65.288C144.802 59.5707 143.351 55.176 140.45 52.104C137.634 49.032 134.135 47.496 129.954 47.496C125.687 47.496 122.146 49.032 119.33 52.104C116.514 55.0907 115.106 59.4853 115.106 65.288C115.106 71.0053 116.471 75.4 119.202 78.472C122.018 81.544 125.517 83.08 129.698 83.08ZM227.699 39.688C229.747 36.36 232.691 33.672 236.531 31.624C240.371 29.576 244.766 28.552 249.715 28.552C255.603 28.552 260.936 30.0453 265.715 33.032C270.494 36.0187 274.248 40.2853 276.979 45.832C279.795 51.3787 281.203 57.8213 281.203 65.16C281.203 72.4987 279.795 78.984 276.979 84.616C274.248 90.1627 270.494 94.472 265.715 97.544C260.936 100.531 255.603 102.024 249.715 102.024C244.68 102.024 240.286 101.043 236.531 99.08C232.776 97.032 229.832 94.344 227.699 91.016V101H205.811V6.28H227.699V39.688ZM258.931 65.16C258.931 59.6987 257.395 55.432 254.323 52.36C251.336 49.2027 247.624 47.624 243.187 47.624C238.835 47.624 235.123 49.2027 232.051 52.36C229.064 55.5173 227.571 59.8267 227.571 65.288C227.571 70.7493 229.064 75.0587 232.051 78.216C235.123 81.3733 238.835 82.952 243.187 82.952C247.539 82.952 251.251 81.3733 254.323 78.216C257.395 74.9733 258.931 70.6213 258.931 65.16ZM325.198 102.024C318.201 102.024 311.886 100.531 306.254 97.544C300.707 94.5573 296.313 90.2907 293.07 84.744C289.913 79.1973 288.334 72.712 288.334 65.288C288.334 57.9493 289.955 51.5067 293.198 45.96C296.441 40.328 300.878 36.0187 306.51 33.032C312.142 30.0453 318.457 28.552 325.454 28.552C332.451 28.552 338.766 30.0453 344.398 33.032C350.03 36.0187 354.467 40.328 357.71 45.96C360.953 51.5067 362.574 57.9493 362.574 65.288C362.574 72.6267 360.91 79.112 357.582 84.744C354.339 90.2907 349.859 94.5573 344.142 97.544C338.51 100.531 332.195 102.024 325.198 102.024ZM325.198 83.08C329.379 83.08 332.921 81.544 335.822 78.472C338.809 75.4 340.302 71.0053 340.302 65.288C340.302 59.5707 338.851 55.176 335.95 52.104C333.134 49.032 329.635 47.496 325.454 47.496C321.187 47.496 317.646 49.032 314.83 52.104C312.014 55.0907 310.606 59.4853 310.606 65.288C310.606 71.0053 311.971 75.4 314.702 78.472C317.518 81.544 321.017 83.08 325.198 83.08ZM406.698 102.024C399.701 102.024 393.386 100.531 387.754 97.544C382.207 94.5573 377.813 90.2907 374.57 84.744C371.413 79.1973 369.834 72.712 369.834 65.288C369.834 57.9493 371.455 51.5067 374.698 45.96C377.941 40.328 382.378 36.0187 388.01 33.032C393.642 30.0453 399.957 28.552 406.954 28.552C413.951 28.552 420.266 30.0453 425.898 33.032C431.53 36.0187 435.967 40.328 439.21 45.96C442.453 51.5067 444.074 57.9493 444.074 65.288C444.074 72.6267 442.41 79.112 439.082 84.744C435.839 90.2907 431.359 94.5573 425.642 97.544C420.01 100.531 413.695 102.024 406.698 102.024ZM406.698 83.08C410.879 83.08 414.421 81.544 417.322 78.472C420.309 75.4 421.802 71.0053 421.802 65.288C421.802 59.5707 420.351 55.176 417.45 52.104C414.634 49.032 411.135 47.496 406.954 47.496C402.687 47.496 399.146 49.032 396.33 52.104C393.514 55.0907 392.106 59.4853 392.106 65.288C392.106 71.0053 393.471 75.4 396.202 78.472C399.018 81.544 402.517 83.08 406.698 83.08ZM499.334 101L477.574 71.048V101H455.686V6.28H477.574V58.632L499.206 29.576H526.214L496.518 65.416L526.47 101H499.334ZM563.867 102.024C557.638 102.024 552.091 100.957 547.227 98.824C542.363 96.6907 538.523 93.7893 535.707 90.12C532.891 86.3653 531.312 82.184 530.971 77.576H552.603C552.859 80.0507 554.011 82.056 556.059 83.592C558.107 85.128 560.624 85.896 563.611 85.896C566.342 85.896 568.432 85.384 569.883 84.36C571.419 83.2507 572.187 81.8427 572.187 80.136C572.187 78.088 571.12 76.5947 568.987 75.656C566.854 74.632 563.398 73.5227 558.619 72.328C553.499 71.1333 549.232 69.896 545.819 68.616C542.406 67.2507 539.462 65.16 536.987 62.344C534.512 59.4427 533.275 55.56 533.275 50.696C533.275 46.6 534.384 42.888 536.603 39.56C538.907 36.1467 542.235 33.4587 546.587 31.496C551.024 29.5333 556.272 28.552 562.331 28.552C571.291 28.552 578.331 30.7707 583.451 35.208C588.656 39.6453 591.643 45.5333 592.411 52.872H572.187C571.846 50.3973 570.736 48.4347 568.859 46.984C567.067 45.5333 564.678 44.808 561.691 44.808C559.131 44.808 557.168 45.32 555.803 46.344C554.438 47.2827 553.755 48.6053 553.755 50.312C553.755 52.36 554.822 53.896 556.955 54.92C559.174 55.944 562.587 56.968 567.195 57.992C572.486 59.3573 576.795 60.7227 580.123 62.088C583.451 63.368 586.352 65.5013 588.827 68.488C591.387 71.3893 592.71 75.3147 592.795 80.264C592.795 84.4453 591.6 88.2 589.211 91.528C586.907 94.7707 583.536 97.3307 579.099 99.208C574.747 101.085 569.67 102.024 563.867 102.024ZM669.151 47.752H657.375V101H635.487V47.752H627.551V29.576H635.487V27.528C635.487 18.7387 638.004 12.0827 643.039 7.56C648.074 2.952 655.455 0.647995 665.183 0.647995C666.804 0.647995 667.999 0.690661 668.767 0.775993V19.336C664.586 19.08 661.642 19.6773 659.935 21.128C658.228 22.5787 657.375 25.1813 657.375 28.936V29.576H669.151V47.752ZM711.948 102.024C704.951 102.024 698.636 100.531 693.004 97.544C687.457 94.5573 683.063 90.2907 679.82 84.744C676.663 79.1973 675.084 72.712 675.084 65.288C675.084 57.9493 676.705 51.5067 679.948 45.96C683.191 40.328 687.628 36.0187 693.26 33.032C698.892 30.0453 705.207 28.552 712.204 28.552C719.201 28.552 725.516 30.0453 731.148 33.032C736.78 36.0187 741.217 40.328 744.46 45.96C747.703 51.5067 749.324 57.9493 749.324 65.288C749.324 72.6267 747.66 79.112 744.332 84.744C741.089 90.2907 736.609 94.5573 730.892 97.544C725.26 100.531 718.945 102.024 711.948 102.024ZM711.948 83.08C716.129 83.08 719.671 81.544 722.572 78.472C725.559 75.4 727.052 71.0053 727.052 65.288C727.052 59.5707 725.601 55.176 722.7 52.104C719.884 49.032 716.385 47.496 712.204 47.496C707.937 47.496 704.396 49.032 701.58 52.104C698.764 55.0907 697.356 59.4853 697.356 65.288C697.356 71.0053 698.721 75.4 701.452 78.472C704.268 81.544 707.767 83.08 711.948 83.08ZM831.464 29.576V101H809.576V91.272C807.357 94.4293 804.328 96.9893 800.488 98.952C796.733 100.829 792.552 101.768 787.944 101.768C782.483 101.768 777.661 100.573 773.48 98.184C769.299 95.7093 766.056 92.168 763.752 87.56C761.448 82.952 760.296 77.5333 760.296 71.304V29.576H782.056V68.36C782.056 73.1387 783.293 76.8507 785.768 79.496C788.243 82.1413 791.571 83.464 795.752 83.464C800.019 83.464 803.389 82.1413 805.864 79.496C808.339 76.8507 809.576 73.1387 809.576 68.36V29.576H831.464ZM890.706 28.808C899.069 28.808 905.725 31.5387 910.674 37C915.709 42.376 918.226 49.8 918.226 59.272V101H896.466V62.216C896.466 57.4373 895.229 53.7253 892.754 51.08C890.279 48.4347 886.951 47.112 882.77 47.112C878.589 47.112 875.261 48.4347 872.786 51.08C870.311 53.7253 869.074 57.4373 869.074 62.216V101H847.186V29.576H869.074V39.048C871.293 35.8907 874.279 33.416 878.034 31.624C881.789 29.7467 886.013 28.808 890.706 28.808ZM929.084 65.16C929.084 57.8213 930.449 51.3787 933.18 45.832C935.996 40.2853 939.793 36.0187 944.572 33.032C949.351 30.0453 954.684 28.552 960.572 28.552C965.265 28.552 969.532 29.5333 973.372 31.496C977.297 33.4587 980.369 36.104 982.588 39.432V6.28H1004.48V101H982.588V90.76C980.54 94.1733 977.596 96.904 973.756 98.952C970.001 101 965.607 102.024 960.572 102.024C954.684 102.024 949.351 100.531 944.572 97.544C939.793 94.472 935.996 90.1627 933.18 84.616C930.449 78.984 929.084 72.4987 929.084 65.16ZM982.588 65.288C982.588 59.8267 981.052 55.5173 977.98 52.36C974.993 49.2027 971.324 47.624 966.972 47.624C962.62 47.624 958.908 49.2027 955.836 52.36C952.849 55.432 951.356 59.6987 951.356 65.16C951.356 70.6213 952.849 74.9733 955.836 78.216C958.908 81.3733 962.62 82.952 966.972 82.952C971.324 82.952 974.993 81.3733 977.98 78.216C981.052 75.0587 982.588 70.7493 982.588 65.288Z" fill="black"/>
</svg>
