<svg width="80" height="57" viewBox="0 0 80 57" fill="none" xmlns="http://www.w3.org/2000/svg">
<path d="M12 24.4286C16.4125 24.4286 20 20.777 20 16.2857C20 11.7944 16.4125 8.14286 12 8.14286C7.5875 8.14286 4 11.7944 4 16.2857C4 20.777 7.5875 24.4286 12 24.4286ZM68 24.4286C72.4125 24.4286 76 20.777 76 16.2857C76 11.7944 72.4125 8.14286 68 8.14286C63.5875 8.14286 60 11.7944 60 16.2857C60 20.777 63.5875 24.4286 68 24.4286ZM72 28.5H64C61.8 28.5 59.8125 29.4034 58.3625 30.8665C63.4 33.6784 66.975 38.7549 67.75 44.7857H76C78.2125 44.7857 80 42.9663 80 40.7143V36.6429C80 32.1516 76.4125 28.5 72 28.5ZM40 28.5C47.7375 28.5 54 22.1257 54 14.25C54 6.37433 47.7375 0 40 0C32.2625 0 26 6.37433 26 14.25C26 22.1257 32.2625 28.5 40 28.5ZM49.6 32.5714H48.5625C45.9625 33.8438 43.075 34.6071 40 34.6071C36.925 34.6071 34.05 33.8438 31.4375 32.5714H30.4C22.45 32.5714 16 39.1366 16 47.2286V50.8929C16 54.2645 18.6875 57 22 57H58C61.3125 57 64 54.2645 64 50.8929V47.2286C64 39.1366 57.55 32.5714 49.6 32.5714ZM21.6375 30.8665C20.1875 29.4034 18.2 28.5 16 28.5H8C3.5875 28.5 0 32.1516 0 36.6429V40.7143C0 42.9663 1.7875 44.7857 4 44.7857H12.2375C13.025 38.7549 16.6 33.6784 21.6375 30.8665Z" fill="#D77A7A"/>
</svg>
